G04 #@! TF.GenerationSoftware,KiCad,Pcbnew,(5.1.9-0-10_14)*
G04 #@! TF.CreationDate,2021-05-28T13:58:57-04:00*
G04 #@! TF.ProjectId,GrBLDC,4772424c-4443-42e6-9b69-6361645f7063,rev?*
G04 #@! TF.SameCoordinates,PX5a7646cPY8128a60*
G04 #@! TF.FileFunction,Soldermask,Top*
G04 #@! TF.FilePolarity,Negative*
%FSLAX46Y46*%
G04 Gerber Fmt 4.6, Leading zero omitted, Abs format (unit mm)*
G04 Created by KiCad (PCBNEW (5.1.9-0-10_14)) date 2021-05-28 13:58:57*
%MOMM*%
%LPD*%
G01*
G04 APERTURE LIST*
%ADD10C,2.000000*%
%ADD11C,0.500000*%
%ADD12R,1.600000X0.300000*%
%ADD13R,2.400000X6.460000*%
%ADD14R,0.750000X0.800000*%
%ADD15R,9.000000X1.400000*%
%ADD16R,1.600000X1.000000*%
%ADD17R,0.800000X0.750000*%
%ADD18R,1.000000X1.600000*%
%ADD19R,2.400300X4.000500*%
%ADD20R,0.500000X0.900000*%
%ADD21R,0.900000X0.500000*%
%ADD22R,0.300000X1.600000*%
%ADD23R,6.460000X2.400000*%
%ADD24C,0.889000*%
%ADD25R,1.080000X0.450000*%
%ADD26R,0.650000X0.450000*%
%ADD27R,3.540000X4.260000*%
%ADD28R,0.900000X1.700000*%
%ADD29R,3.599180X1.600200*%
%ADD30C,2.500000*%
%ADD31R,1.727200X2.032000*%
%ADD32O,1.727200X2.032000*%
%ADD33R,1.600000X0.550000*%
%ADD34R,0.550000X1.600000*%
%ADD35C,0.150000*%
%ADD36R,0.800100X0.800100*%
%ADD37R,1.700000X0.900000*%
%ADD38O,1.700000X1.700000*%
%ADD39R,1.700000X1.700000*%
%ADD40R,0.300000X1.700000*%
%ADD41R,1.700000X0.300000*%
%ADD42R,5.000000X5.000000*%
%ADD43R,0.900000X1.200000*%
%ADD44R,2.300000X2.500000*%
%ADD45C,3.000000*%
G04 APERTURE END LIST*
D10*
X99400000Y2325000D03*
X5200000Y8800000D03*
X9900000Y37050000D03*
X94500000Y56475000D03*
D11*
X84630900Y26575200D03*
X85930900Y26575200D03*
X84630900Y27875200D03*
X87230900Y27875200D03*
X85930900Y27875200D03*
X84630900Y29175200D03*
X87230900Y29175200D03*
X85930900Y29175200D03*
X87230900Y34375200D03*
X84630900Y34375200D03*
X85930900Y34375200D03*
X87230900Y33075200D03*
X84630900Y33075200D03*
X85930900Y33075200D03*
X84630900Y31775200D03*
X87230900Y31775200D03*
X85930900Y31775200D03*
X84630900Y30475200D03*
X87230900Y30475200D03*
X87230900Y26575200D03*
X85930900Y30475200D03*
G36*
G01*
X89530900Y29955200D02*
X87930900Y29955200D01*
G75*
G02*
X87860900Y30025200I0J70000D01*
G01*
X87860900Y30325200D01*
G75*
G02*
X87930900Y30395200I70000J0D01*
G01*
X89530900Y30395200D01*
G75*
G02*
X89600900Y30325200I0J-70000D01*
G01*
X89600900Y30025200D01*
G75*
G02*
X89530900Y29955200I-70000J0D01*
G01*
G37*
G36*
G01*
X89530900Y30605200D02*
X87930900Y30605200D01*
G75*
G02*
X87860900Y30675200I0J70000D01*
G01*
X87860900Y30975200D01*
G75*
G02*
X87930900Y31045200I70000J0D01*
G01*
X89530900Y31045200D01*
G75*
G02*
X89600900Y30975200I0J-70000D01*
G01*
X89600900Y30675200D01*
G75*
G02*
X89530900Y30605200I-70000J0D01*
G01*
G37*
G36*
G01*
X89530900Y31255200D02*
X87930900Y31255200D01*
G75*
G02*
X87860900Y31325200I0J70000D01*
G01*
X87860900Y31625200D01*
G75*
G02*
X87930900Y31695200I70000J0D01*
G01*
X89530900Y31695200D01*
G75*
G02*
X89600900Y31625200I0J-70000D01*
G01*
X89600900Y31325200D01*
G75*
G02*
X89530900Y31255200I-70000J0D01*
G01*
G37*
G36*
G01*
X89530900Y31905200D02*
X87930900Y31905200D01*
G75*
G02*
X87860900Y31975200I0J70000D01*
G01*
X87860900Y32275200D01*
G75*
G02*
X87930900Y32345200I70000J0D01*
G01*
X89530900Y32345200D01*
G75*
G02*
X89600900Y32275200I0J-70000D01*
G01*
X89600900Y31975200D01*
G75*
G02*
X89530900Y31905200I-70000J0D01*
G01*
G37*
G36*
G01*
X83930900Y28005200D02*
X82330900Y28005200D01*
G75*
G02*
X82260900Y28075200I0J70000D01*
G01*
X82260900Y28375200D01*
G75*
G02*
X82330900Y28445200I70000J0D01*
G01*
X83930900Y28445200D01*
G75*
G02*
X84000900Y28375200I0J-70000D01*
G01*
X84000900Y28075200D01*
G75*
G02*
X83930900Y28005200I-70000J0D01*
G01*
G37*
D12*
X88730900Y28225200D03*
X88730900Y28875200D03*
G36*
G01*
X89530900Y29305200D02*
X87930900Y29305200D01*
G75*
G02*
X87860900Y29375200I0J70000D01*
G01*
X87860900Y29675200D01*
G75*
G02*
X87930900Y29745200I70000J0D01*
G01*
X89530900Y29745200D01*
G75*
G02*
X89600900Y29675200I0J-70000D01*
G01*
X89600900Y29375200D01*
G75*
G02*
X89530900Y29305200I-70000J0D01*
G01*
G37*
G36*
G01*
X83930900Y32555200D02*
X82330900Y32555200D01*
G75*
G02*
X82260900Y32625200I0J70000D01*
G01*
X82260900Y32925200D01*
G75*
G02*
X82330900Y32995200I70000J0D01*
G01*
X83930900Y32995200D01*
G75*
G02*
X84000900Y32925200I0J-70000D01*
G01*
X84000900Y32625200D01*
G75*
G02*
X83930900Y32555200I-70000J0D01*
G01*
G37*
G36*
G01*
X83930900Y31905200D02*
X82330900Y31905200D01*
G75*
G02*
X82260900Y31975200I0J70000D01*
G01*
X82260900Y32275200D01*
G75*
G02*
X82330900Y32345200I70000J0D01*
G01*
X83930900Y32345200D01*
G75*
G02*
X84000900Y32275200I0J-70000D01*
G01*
X84000900Y31975200D01*
G75*
G02*
X83930900Y31905200I-70000J0D01*
G01*
G37*
G36*
G01*
X83930900Y31255200D02*
X82330900Y31255200D01*
G75*
G02*
X82260900Y31325200I0J70000D01*
G01*
X82260900Y31625200D01*
G75*
G02*
X82330900Y31695200I70000J0D01*
G01*
X83930900Y31695200D01*
G75*
G02*
X84000900Y31625200I0J-70000D01*
G01*
X84000900Y31325200D01*
G75*
G02*
X83930900Y31255200I-70000J0D01*
G01*
G37*
G36*
G01*
X83930900Y30605200D02*
X82330900Y30605200D01*
G75*
G02*
X82260900Y30675200I0J70000D01*
G01*
X82260900Y30975200D01*
G75*
G02*
X82330900Y31045200I70000J0D01*
G01*
X83930900Y31045200D01*
G75*
G02*
X84000900Y30975200I0J-70000D01*
G01*
X84000900Y30675200D01*
G75*
G02*
X83930900Y30605200I-70000J0D01*
G01*
G37*
G36*
G01*
X83930900Y29955200D02*
X82330900Y29955200D01*
G75*
G02*
X82260900Y30025200I0J70000D01*
G01*
X82260900Y30325200D01*
G75*
G02*
X82330900Y30395200I70000J0D01*
G01*
X83930900Y30395200D01*
G75*
G02*
X84000900Y30325200I0J-70000D01*
G01*
X84000900Y30025200D01*
G75*
G02*
X83930900Y29955200I-70000J0D01*
G01*
G37*
G36*
G01*
X83930900Y29305200D02*
X82330900Y29305200D01*
G75*
G02*
X82260900Y29375200I0J70000D01*
G01*
X82260900Y29675200D01*
G75*
G02*
X82330900Y29745200I70000J0D01*
G01*
X83930900Y29745200D01*
G75*
G02*
X84000900Y29675200I0J-70000D01*
G01*
X84000900Y29375200D01*
G75*
G02*
X83930900Y29305200I-70000J0D01*
G01*
G37*
G36*
G01*
X89530900Y32555200D02*
X87930900Y32555200D01*
G75*
G02*
X87860900Y32625200I0J70000D01*
G01*
X87860900Y32925200D01*
G75*
G02*
X87930900Y32995200I70000J0D01*
G01*
X89530900Y32995200D01*
G75*
G02*
X89600900Y32925200I0J-70000D01*
G01*
X89600900Y32625200D01*
G75*
G02*
X89530900Y32555200I-70000J0D01*
G01*
G37*
G36*
G01*
X83930900Y28655200D02*
X82330900Y28655200D01*
G75*
G02*
X82260900Y28725200I0J70000D01*
G01*
X82260900Y29025200D01*
G75*
G02*
X82330900Y29095200I70000J0D01*
G01*
X83930900Y29095200D01*
G75*
G02*
X84000900Y29025200I0J-70000D01*
G01*
X84000900Y28725200D01*
G75*
G02*
X83930900Y28655200I-70000J0D01*
G01*
G37*
X88730900Y27575200D03*
G36*
G01*
X89530900Y33205200D02*
X87930900Y33205200D01*
G75*
G02*
X87860900Y33275200I0J70000D01*
G01*
X87860900Y33575200D01*
G75*
G02*
X87930900Y33645200I70000J0D01*
G01*
X89530900Y33645200D01*
G75*
G02*
X89600900Y33575200I0J-70000D01*
G01*
X89600900Y33275200D01*
G75*
G02*
X89530900Y33205200I-70000J0D01*
G01*
G37*
G36*
G01*
X83930900Y33205200D02*
X82330900Y33205200D01*
G75*
G02*
X82260900Y33275200I0J70000D01*
G01*
X82260900Y33575200D01*
G75*
G02*
X82330900Y33645200I70000J0D01*
G01*
X83930900Y33645200D01*
G75*
G02*
X84000900Y33575200I0J-70000D01*
G01*
X84000900Y33275200D01*
G75*
G02*
X83930900Y33205200I-70000J0D01*
G01*
G37*
G36*
G01*
X83930900Y27355200D02*
X82330900Y27355200D01*
G75*
G02*
X82260900Y27425200I0J70000D01*
G01*
X82260900Y27725200D01*
G75*
G02*
X82330900Y27795200I70000J0D01*
G01*
X83930900Y27795200D01*
G75*
G02*
X84000900Y27725200I0J-70000D01*
G01*
X84000900Y27425200D01*
G75*
G02*
X83930900Y27355200I-70000J0D01*
G01*
G37*
X88730900Y26925200D03*
G36*
G01*
X89530900Y33855200D02*
X87930900Y33855200D01*
G75*
G02*
X87860900Y33925200I0J70000D01*
G01*
X87860900Y34225200D01*
G75*
G02*
X87930900Y34295200I70000J0D01*
G01*
X89530900Y34295200D01*
G75*
G02*
X89600900Y34225200I0J-70000D01*
G01*
X89600900Y33925200D01*
G75*
G02*
X89530900Y33855200I-70000J0D01*
G01*
G37*
G36*
G01*
X83930900Y33855200D02*
X82330900Y33855200D01*
G75*
G02*
X82260900Y33925200I0J70000D01*
G01*
X82260900Y34225200D01*
G75*
G02*
X82330900Y34295200I70000J0D01*
G01*
X83930900Y34295200D01*
G75*
G02*
X84000900Y34225200I0J-70000D01*
G01*
X84000900Y33925200D01*
G75*
G02*
X83930900Y33855200I-70000J0D01*
G01*
G37*
G36*
G01*
X83930900Y26705200D02*
X82330900Y26705200D01*
G75*
G02*
X82260900Y26775200I0J70000D01*
G01*
X82260900Y27075200D01*
G75*
G02*
X82330900Y27145200I70000J0D01*
G01*
X83930900Y27145200D01*
G75*
G02*
X84000900Y27075200I0J-70000D01*
G01*
X84000900Y26775200D01*
G75*
G02*
X83930900Y26705200I-70000J0D01*
G01*
G37*
X88730900Y26275200D03*
G36*
G01*
X89530900Y34505200D02*
X87930900Y34505200D01*
G75*
G02*
X87860900Y34575200I0J70000D01*
G01*
X87860900Y34875200D01*
G75*
G02*
X87930900Y34945200I70000J0D01*
G01*
X89530900Y34945200D01*
G75*
G02*
X89600900Y34875200I0J-70000D01*
G01*
X89600900Y34575200D01*
G75*
G02*
X89530900Y34505200I-70000J0D01*
G01*
G37*
G36*
G01*
X83930900Y34505200D02*
X82330900Y34505200D01*
G75*
G02*
X82260900Y34575200I0J70000D01*
G01*
X82260900Y34875200D01*
G75*
G02*
X82330900Y34945200I70000J0D01*
G01*
X83930900Y34945200D01*
G75*
G02*
X84000900Y34875200I0J-70000D01*
G01*
X84000900Y34575200D01*
G75*
G02*
X83930900Y34505200I-70000J0D01*
G01*
G37*
G36*
G01*
X83930900Y26055200D02*
X82330900Y26055200D01*
G75*
G02*
X82260900Y26125200I0J70000D01*
G01*
X82260900Y26425200D01*
G75*
G02*
X82330900Y26495200I70000J0D01*
G01*
X83930900Y26495200D01*
G75*
G02*
X84000900Y26425200I0J-70000D01*
G01*
X84000900Y26125200D01*
G75*
G02*
X83930900Y26055200I-70000J0D01*
G01*
G37*
D13*
X85930900Y30175200D03*
D14*
X43688000Y49797400D03*
X43688000Y48297400D03*
D15*
X69976500Y25349500D03*
X69976500Y13639500D03*
D14*
X53030000Y8360000D03*
X53030000Y6860000D03*
G36*
G01*
X73408250Y19355500D02*
X72895750Y19355500D01*
G75*
G02*
X72677000Y19574250I0J218750D01*
G01*
X72677000Y20011750D01*
G75*
G02*
X72895750Y20230500I218750J0D01*
G01*
X73408250Y20230500D01*
G75*
G02*
X73627000Y20011750I0J-218750D01*
G01*
X73627000Y19574250D01*
G75*
G02*
X73408250Y19355500I-218750J0D01*
G01*
G37*
G36*
G01*
X73408250Y17780500D02*
X72895750Y17780500D01*
G75*
G02*
X72677000Y17999250I0J218750D01*
G01*
X72677000Y18436750D01*
G75*
G02*
X72895750Y18655500I218750J0D01*
G01*
X73408250Y18655500D01*
G75*
G02*
X73627000Y18436750I0J-218750D01*
G01*
X73627000Y17999250D01*
G75*
G02*
X73408250Y17780500I-218750J0D01*
G01*
G37*
G36*
G01*
X70360250Y19348000D02*
X69847750Y19348000D01*
G75*
G02*
X69629000Y19566750I0J218750D01*
G01*
X69629000Y20004250D01*
G75*
G02*
X69847750Y20223000I218750J0D01*
G01*
X70360250Y20223000D01*
G75*
G02*
X70579000Y20004250I0J-218750D01*
G01*
X70579000Y19566750D01*
G75*
G02*
X70360250Y19348000I-218750J0D01*
G01*
G37*
G36*
G01*
X70360250Y17773000D02*
X69847750Y17773000D01*
G75*
G02*
X69629000Y17991750I0J218750D01*
G01*
X69629000Y18429250D01*
G75*
G02*
X69847750Y18648000I218750J0D01*
G01*
X70360250Y18648000D01*
G75*
G02*
X70579000Y18429250I0J-218750D01*
G01*
X70579000Y17991750D01*
G75*
G02*
X70360250Y17773000I-218750J0D01*
G01*
G37*
G36*
G01*
X67058250Y17780500D02*
X66545750Y17780500D01*
G75*
G02*
X66327000Y17999250I0J218750D01*
G01*
X66327000Y18436750D01*
G75*
G02*
X66545750Y18655500I218750J0D01*
G01*
X67058250Y18655500D01*
G75*
G02*
X67277000Y18436750I0J-218750D01*
G01*
X67277000Y17999250D01*
G75*
G02*
X67058250Y17780500I-218750J0D01*
G01*
G37*
G36*
G01*
X67058250Y19355500D02*
X66545750Y19355500D01*
G75*
G02*
X66327000Y19574250I0J218750D01*
G01*
X66327000Y20011750D01*
G75*
G02*
X66545750Y20230500I218750J0D01*
G01*
X67058250Y20230500D01*
G75*
G02*
X67277000Y20011750I0J-218750D01*
G01*
X67277000Y19574250D01*
G75*
G02*
X67058250Y19355500I-218750J0D01*
G01*
G37*
X35110000Y5540000D03*
X35110000Y7040000D03*
D16*
X13271500Y24969600D03*
X13271500Y21969600D03*
D17*
X41160000Y7747000D03*
X42660000Y7747000D03*
X49500000Y26340000D03*
X48000000Y26340000D03*
D14*
X91300300Y54952200D03*
X91300300Y56452200D03*
X91528900Y35660900D03*
X91528900Y37160900D03*
X91871800Y15912400D03*
X91871800Y17412400D03*
D17*
X62539180Y29654500D03*
X64039180Y29654500D03*
D14*
X94315280Y46999460D03*
X94315280Y48499460D03*
X94404180Y28053600D03*
X94404180Y29553600D03*
X94338140Y8541320D03*
X94338140Y10041320D03*
D17*
X54830280Y26771600D03*
X56330280Y26771600D03*
D14*
X94315280Y51496660D03*
X94315280Y49996660D03*
X94378780Y32627000D03*
X94378780Y31127000D03*
X94338140Y13102020D03*
X94338140Y11602020D03*
D17*
X59302080Y26771600D03*
X57802080Y26771600D03*
X79629700Y51041300D03*
X78129700Y51041300D03*
X79713520Y31884620D03*
X78213520Y31884620D03*
X79721140Y12786360D03*
X78221140Y12786360D03*
D14*
X58717180Y41477500D03*
X58717180Y42977500D03*
D17*
X79642400Y49618900D03*
X78142400Y49618900D03*
D14*
X79324200Y48184500D03*
X79324200Y46684500D03*
D17*
X79700820Y30360620D03*
X78200820Y30360620D03*
D14*
X79395320Y28850020D03*
X79395320Y27350020D03*
D17*
X79708440Y11198860D03*
X78208440Y11198860D03*
D14*
X79291180Y9767000D03*
X79291180Y8267000D03*
X57269380Y41477500D03*
X57269380Y42977500D03*
D17*
X55885780Y41871900D03*
X54385780Y41871900D03*
X82536600Y55778400D03*
X84036600Y55778400D03*
X82920140Y24218900D03*
X84420140Y24218900D03*
X82892200Y17716500D03*
X84392200Y17716500D03*
D14*
X51033680Y38215000D03*
X51033680Y36715000D03*
X36080700Y49810100D03*
X36080700Y48310100D03*
X26631900Y49822800D03*
X26631900Y48322800D03*
X40690800Y49822800D03*
X40690800Y48322800D03*
X31450000Y49820000D03*
X31450000Y48320000D03*
X23558500Y48322800D03*
X23558500Y49822800D03*
D17*
X82574700Y36804600D03*
X84074700Y36804600D03*
X83146200Y5016500D03*
X84646200Y5016500D03*
D14*
X63466980Y38176900D03*
X63466980Y36676900D03*
D17*
X39741540Y10749280D03*
X38241540Y10749280D03*
D18*
X39638100Y8859520D03*
X36638100Y8859520D03*
D14*
X36890000Y13120000D03*
X36890000Y11620000D03*
D17*
X33430000Y19930000D03*
X34930000Y19930000D03*
X33070000Y15150000D03*
X31570000Y15150000D03*
D14*
X65020000Y2620000D03*
X65020000Y4120000D03*
D18*
X36640000Y6050000D03*
X39640000Y6050000D03*
D14*
X66560000Y2630000D03*
X66560000Y4130000D03*
D19*
X6310000Y40800500D03*
X6310000Y32799500D03*
D18*
X81258280Y21996400D03*
X84258280Y21996400D03*
D16*
X15760700Y24969600D03*
X15760700Y21969600D03*
X13220700Y10542400D03*
X13220700Y7542400D03*
D19*
X6311900Y27571700D03*
X6311900Y19570700D03*
D16*
X16000000Y38900000D03*
X16000000Y35900000D03*
X13373100Y38900000D03*
X13373100Y35900000D03*
D19*
X6311900Y13195300D03*
X6311900Y5194300D03*
D18*
X50587780Y44234100D03*
X53587780Y44234100D03*
D16*
X15760700Y10542400D03*
X15760700Y7542400D03*
D17*
X82968400Y43370500D03*
X84468400Y43370500D03*
X59678000Y54102000D03*
X58178000Y54102000D03*
X41160000Y9144000D03*
X42660000Y9144000D03*
D20*
X47140000Y29390000D03*
X48640000Y29390000D03*
X49510000Y27850000D03*
X48010000Y27850000D03*
D21*
X92692220Y47141700D03*
X92692220Y48641700D03*
X92753180Y28180600D03*
X92753180Y29680600D03*
X92710000Y8655620D03*
X92710000Y10155620D03*
D20*
X54976330Y28301950D03*
X56476330Y28301950D03*
D21*
X92692220Y51296000D03*
X92692220Y49796000D03*
X92765880Y32474600D03*
X92765880Y30974600D03*
X92710000Y12959780D03*
X92710000Y11459780D03*
D20*
X59136980Y28282900D03*
X57636980Y28282900D03*
D21*
X61214000Y54114000D03*
X61214000Y55614000D03*
X56642000Y55614000D03*
X56642000Y54114000D03*
X32994600Y48437100D03*
X32994600Y49937100D03*
X42202100Y48449800D03*
X42202100Y49949800D03*
X34607500Y48449800D03*
X34607500Y49949800D03*
X25082500Y48475200D03*
X25082500Y49975200D03*
D20*
X61020000Y16520000D03*
X59520000Y16520000D03*
D21*
X39179500Y49975200D03*
X39179500Y48475200D03*
X29883100Y49975200D03*
X29883100Y48475200D03*
X21932900Y50000600D03*
X21932900Y48500600D03*
D20*
X61032000Y13726000D03*
X59532000Y13726000D03*
X61044000Y10932000D03*
X59544000Y10932000D03*
D21*
X37579300Y49975200D03*
X37579300Y48475200D03*
X28257500Y49975200D03*
X28257500Y48475200D03*
X20700000Y51130000D03*
X20700000Y52630000D03*
X23253700Y17133000D03*
X23253700Y15633000D03*
X25010000Y12800000D03*
X25010000Y14300000D03*
D20*
X20828700Y2641600D03*
X19328700Y2641600D03*
X64640000Y5660000D03*
X66140000Y5660000D03*
X17983900Y2641600D03*
X16483900Y2641600D03*
X23316500Y31191200D03*
X24816500Y31191200D03*
D21*
X25539700Y28155200D03*
X25539700Y29655200D03*
D20*
X20676300Y17018000D03*
X19176300Y17018000D03*
X21285900Y31242000D03*
X19785900Y31242000D03*
X27013600Y43294300D03*
X25513600Y43294300D03*
D21*
X25793700Y40258300D03*
X25793700Y41758300D03*
D20*
X17831500Y17018000D03*
X16331500Y17018000D03*
X18339500Y31242000D03*
X16839500Y31242000D03*
X65290000Y7340000D03*
X63790000Y7340000D03*
D21*
X63246000Y9930000D03*
X63246000Y11430000D03*
D11*
X84628200Y45701400D03*
X85928200Y45701400D03*
X84628200Y47001400D03*
X87228200Y47001400D03*
X85928200Y47001400D03*
X84628200Y48301400D03*
X87228200Y48301400D03*
X85928200Y48301400D03*
X87228200Y53501400D03*
X84628200Y53501400D03*
X85928200Y53501400D03*
X87228200Y52201400D03*
X84628200Y52201400D03*
X85928200Y52201400D03*
X84628200Y50901400D03*
X87228200Y50901400D03*
X85928200Y50901400D03*
X84628200Y49601400D03*
X87228200Y49601400D03*
X87228200Y45701400D03*
X85928200Y49601400D03*
D12*
X88728200Y49301400D03*
X88728200Y49951400D03*
X88728200Y50601400D03*
X88728200Y51251400D03*
X83128200Y47351400D03*
X88728200Y47351400D03*
X88728200Y48001400D03*
X88728200Y48651400D03*
X83128200Y51901400D03*
X83128200Y51251400D03*
X83128200Y50601400D03*
X83128200Y49951400D03*
X83128200Y49301400D03*
X83128200Y48651400D03*
X88728200Y51901400D03*
X83128200Y48001400D03*
X88728200Y46701400D03*
X88728200Y52551400D03*
X83128200Y52551400D03*
X83128200Y46701400D03*
X88728200Y46051400D03*
X88728200Y53201400D03*
X83128200Y53201400D03*
X83128200Y46051400D03*
X88728200Y45401400D03*
X88728200Y53851400D03*
X83128200Y53851400D03*
X83128200Y45401400D03*
D13*
X85928200Y49301400D03*
D11*
X84625800Y7372800D03*
X85925800Y7372800D03*
X84625800Y8672800D03*
X87225800Y8672800D03*
X85925800Y8672800D03*
X84625800Y9972800D03*
X87225800Y9972800D03*
X85925800Y9972800D03*
X87225800Y15172800D03*
X84625800Y15172800D03*
X85925800Y15172800D03*
X87225800Y13872800D03*
X84625800Y13872800D03*
X85925800Y13872800D03*
X84625800Y12572800D03*
X87225800Y12572800D03*
X85925800Y12572800D03*
X84625800Y11272800D03*
X87225800Y11272800D03*
X87225800Y7372800D03*
X85925800Y11272800D03*
G36*
G01*
X89525800Y10752800D02*
X87925800Y10752800D01*
G75*
G02*
X87855800Y10822800I0J70000D01*
G01*
X87855800Y11122800D01*
G75*
G02*
X87925800Y11192800I70000J0D01*
G01*
X89525800Y11192800D01*
G75*
G02*
X89595800Y11122800I0J-70000D01*
G01*
X89595800Y10822800D01*
G75*
G02*
X89525800Y10752800I-70000J0D01*
G01*
G37*
G36*
G01*
X89525800Y11402800D02*
X87925800Y11402800D01*
G75*
G02*
X87855800Y11472800I0J70000D01*
G01*
X87855800Y11772800D01*
G75*
G02*
X87925800Y11842800I70000J0D01*
G01*
X89525800Y11842800D01*
G75*
G02*
X89595800Y11772800I0J-70000D01*
G01*
X89595800Y11472800D01*
G75*
G02*
X89525800Y11402800I-70000J0D01*
G01*
G37*
G36*
G01*
X89525800Y12052800D02*
X87925800Y12052800D01*
G75*
G02*
X87855800Y12122800I0J70000D01*
G01*
X87855800Y12422800D01*
G75*
G02*
X87925800Y12492800I70000J0D01*
G01*
X89525800Y12492800D01*
G75*
G02*
X89595800Y12422800I0J-70000D01*
G01*
X89595800Y12122800D01*
G75*
G02*
X89525800Y12052800I-70000J0D01*
G01*
G37*
G36*
G01*
X89525800Y12702800D02*
X87925800Y12702800D01*
G75*
G02*
X87855800Y12772800I0J70000D01*
G01*
X87855800Y13072800D01*
G75*
G02*
X87925800Y13142800I70000J0D01*
G01*
X89525800Y13142800D01*
G75*
G02*
X89595800Y13072800I0J-70000D01*
G01*
X89595800Y12772800D01*
G75*
G02*
X89525800Y12702800I-70000J0D01*
G01*
G37*
G36*
G01*
X83925800Y8802800D02*
X82325800Y8802800D01*
G75*
G02*
X82255800Y8872800I0J70000D01*
G01*
X82255800Y9172800D01*
G75*
G02*
X82325800Y9242800I70000J0D01*
G01*
X83925800Y9242800D01*
G75*
G02*
X83995800Y9172800I0J-70000D01*
G01*
X83995800Y8872800D01*
G75*
G02*
X83925800Y8802800I-70000J0D01*
G01*
G37*
D12*
X88725800Y9022800D03*
X88725800Y9672800D03*
G36*
G01*
X89525800Y10102800D02*
X87925800Y10102800D01*
G75*
G02*
X87855800Y10172800I0J70000D01*
G01*
X87855800Y10472800D01*
G75*
G02*
X87925800Y10542800I70000J0D01*
G01*
X89525800Y10542800D01*
G75*
G02*
X89595800Y10472800I0J-70000D01*
G01*
X89595800Y10172800D01*
G75*
G02*
X89525800Y10102800I-70000J0D01*
G01*
G37*
G36*
G01*
X83925800Y13352800D02*
X82325800Y13352800D01*
G75*
G02*
X82255800Y13422800I0J70000D01*
G01*
X82255800Y13722800D01*
G75*
G02*
X82325800Y13792800I70000J0D01*
G01*
X83925800Y13792800D01*
G75*
G02*
X83995800Y13722800I0J-70000D01*
G01*
X83995800Y13422800D01*
G75*
G02*
X83925800Y13352800I-70000J0D01*
G01*
G37*
G36*
G01*
X83925800Y12702800D02*
X82325800Y12702800D01*
G75*
G02*
X82255800Y12772800I0J70000D01*
G01*
X82255800Y13072800D01*
G75*
G02*
X82325800Y13142800I70000J0D01*
G01*
X83925800Y13142800D01*
G75*
G02*
X83995800Y13072800I0J-70000D01*
G01*
X83995800Y12772800D01*
G75*
G02*
X83925800Y12702800I-70000J0D01*
G01*
G37*
G36*
G01*
X83925800Y12052800D02*
X82325800Y12052800D01*
G75*
G02*
X82255800Y12122800I0J70000D01*
G01*
X82255800Y12422800D01*
G75*
G02*
X82325800Y12492800I70000J0D01*
G01*
X83925800Y12492800D01*
G75*
G02*
X83995800Y12422800I0J-70000D01*
G01*
X83995800Y12122800D01*
G75*
G02*
X83925800Y12052800I-70000J0D01*
G01*
G37*
G36*
G01*
X83925800Y11402800D02*
X82325800Y11402800D01*
G75*
G02*
X82255800Y11472800I0J70000D01*
G01*
X82255800Y11772800D01*
G75*
G02*
X82325800Y11842800I70000J0D01*
G01*
X83925800Y11842800D01*
G75*
G02*
X83995800Y11772800I0J-70000D01*
G01*
X83995800Y11472800D01*
G75*
G02*
X83925800Y11402800I-70000J0D01*
G01*
G37*
G36*
G01*
X83925800Y10752800D02*
X82325800Y10752800D01*
G75*
G02*
X82255800Y10822800I0J70000D01*
G01*
X82255800Y11122800D01*
G75*
G02*
X82325800Y11192800I70000J0D01*
G01*
X83925800Y11192800D01*
G75*
G02*
X83995800Y11122800I0J-70000D01*
G01*
X83995800Y10822800D01*
G75*
G02*
X83925800Y10752800I-70000J0D01*
G01*
G37*
G36*
G01*
X83925800Y10102800D02*
X82325800Y10102800D01*
G75*
G02*
X82255800Y10172800I0J70000D01*
G01*
X82255800Y10472800D01*
G75*
G02*
X82325800Y10542800I70000J0D01*
G01*
X83925800Y10542800D01*
G75*
G02*
X83995800Y10472800I0J-70000D01*
G01*
X83995800Y10172800D01*
G75*
G02*
X83925800Y10102800I-70000J0D01*
G01*
G37*
G36*
G01*
X89525800Y13352800D02*
X87925800Y13352800D01*
G75*
G02*
X87855800Y13422800I0J70000D01*
G01*
X87855800Y13722800D01*
G75*
G02*
X87925800Y13792800I70000J0D01*
G01*
X89525800Y13792800D01*
G75*
G02*
X89595800Y13722800I0J-70000D01*
G01*
X89595800Y13422800D01*
G75*
G02*
X89525800Y13352800I-70000J0D01*
G01*
G37*
G36*
G01*
X83925800Y9452800D02*
X82325800Y9452800D01*
G75*
G02*
X82255800Y9522800I0J70000D01*
G01*
X82255800Y9822800D01*
G75*
G02*
X82325800Y9892800I70000J0D01*
G01*
X83925800Y9892800D01*
G75*
G02*
X83995800Y9822800I0J-70000D01*
G01*
X83995800Y9522800D01*
G75*
G02*
X83925800Y9452800I-70000J0D01*
G01*
G37*
X88725800Y8372800D03*
G36*
G01*
X89525800Y14002800D02*
X87925800Y14002800D01*
G75*
G02*
X87855800Y14072800I0J70000D01*
G01*
X87855800Y14372800D01*
G75*
G02*
X87925800Y14442800I70000J0D01*
G01*
X89525800Y14442800D01*
G75*
G02*
X89595800Y14372800I0J-70000D01*
G01*
X89595800Y14072800D01*
G75*
G02*
X89525800Y14002800I-70000J0D01*
G01*
G37*
G36*
G01*
X83925800Y14002800D02*
X82325800Y14002800D01*
G75*
G02*
X82255800Y14072800I0J70000D01*
G01*
X82255800Y14372800D01*
G75*
G02*
X82325800Y14442800I70000J0D01*
G01*
X83925800Y14442800D01*
G75*
G02*
X83995800Y14372800I0J-70000D01*
G01*
X83995800Y14072800D01*
G75*
G02*
X83925800Y14002800I-70000J0D01*
G01*
G37*
G36*
G01*
X83925800Y8152800D02*
X82325800Y8152800D01*
G75*
G02*
X82255800Y8222800I0J70000D01*
G01*
X82255800Y8522800D01*
G75*
G02*
X82325800Y8592800I70000J0D01*
G01*
X83925800Y8592800D01*
G75*
G02*
X83995800Y8522800I0J-70000D01*
G01*
X83995800Y8222800D01*
G75*
G02*
X83925800Y8152800I-70000J0D01*
G01*
G37*
X88725800Y7722800D03*
G36*
G01*
X89525800Y14652800D02*
X87925800Y14652800D01*
G75*
G02*
X87855800Y14722800I0J70000D01*
G01*
X87855800Y15022800D01*
G75*
G02*
X87925800Y15092800I70000J0D01*
G01*
X89525800Y15092800D01*
G75*
G02*
X89595800Y15022800I0J-70000D01*
G01*
X89595800Y14722800D01*
G75*
G02*
X89525800Y14652800I-70000J0D01*
G01*
G37*
G36*
G01*
X83925800Y14652800D02*
X82325800Y14652800D01*
G75*
G02*
X82255800Y14722800I0J70000D01*
G01*
X82255800Y15022800D01*
G75*
G02*
X82325800Y15092800I70000J0D01*
G01*
X83925800Y15092800D01*
G75*
G02*
X83995800Y15022800I0J-70000D01*
G01*
X83995800Y14722800D01*
G75*
G02*
X83925800Y14652800I-70000J0D01*
G01*
G37*
G36*
G01*
X83925800Y7502800D02*
X82325800Y7502800D01*
G75*
G02*
X82255800Y7572800I0J70000D01*
G01*
X82255800Y7872800D01*
G75*
G02*
X82325800Y7942800I70000J0D01*
G01*
X83925800Y7942800D01*
G75*
G02*
X83995800Y7872800I0J-70000D01*
G01*
X83995800Y7572800D01*
G75*
G02*
X83925800Y7502800I-70000J0D01*
G01*
G37*
X88725800Y7072800D03*
G36*
G01*
X89525800Y15302800D02*
X87925800Y15302800D01*
G75*
G02*
X87855800Y15372800I0J70000D01*
G01*
X87855800Y15672800D01*
G75*
G02*
X87925800Y15742800I70000J0D01*
G01*
X89525800Y15742800D01*
G75*
G02*
X89595800Y15672800I0J-70000D01*
G01*
X89595800Y15372800D01*
G75*
G02*
X89525800Y15302800I-70000J0D01*
G01*
G37*
G36*
G01*
X83925800Y15302800D02*
X82325800Y15302800D01*
G75*
G02*
X82255800Y15372800I0J70000D01*
G01*
X82255800Y15672800D01*
G75*
G02*
X82325800Y15742800I70000J0D01*
G01*
X83925800Y15742800D01*
G75*
G02*
X83995800Y15672800I0J-70000D01*
G01*
X83995800Y15372800D01*
G75*
G02*
X83925800Y15302800I-70000J0D01*
G01*
G37*
G36*
G01*
X83925800Y6852800D02*
X82325800Y6852800D01*
G75*
G02*
X82255800Y6922800I0J70000D01*
G01*
X82255800Y7222800D01*
G75*
G02*
X82325800Y7292800I70000J0D01*
G01*
X83925800Y7292800D01*
G75*
G02*
X83995800Y7222800I0J-70000D01*
G01*
X83995800Y6922800D01*
G75*
G02*
X83925800Y6852800I-70000J0D01*
G01*
G37*
D13*
X85925800Y10972800D03*
D11*
X53313780Y36263100D03*
X53313780Y34963100D03*
X54613780Y36263100D03*
X54613780Y33663100D03*
X54613780Y34963100D03*
X55913780Y36263100D03*
X55913780Y33663100D03*
X55913780Y34963100D03*
X61113780Y33663100D03*
X61113780Y36263100D03*
X61113780Y34963100D03*
X59813780Y33663100D03*
X59813780Y36263100D03*
X59813780Y34963100D03*
X58513780Y36263100D03*
X58513780Y33663100D03*
X58513780Y34963100D03*
X57213780Y36263100D03*
X57213780Y33663100D03*
X53313780Y33663100D03*
X57213780Y34963100D03*
G36*
G01*
X56693780Y31363100D02*
X56693780Y32963100D01*
G75*
G02*
X56763780Y33033100I70000J0D01*
G01*
X57063780Y33033100D01*
G75*
G02*
X57133780Y32963100I0J-70000D01*
G01*
X57133780Y31363100D01*
G75*
G02*
X57063780Y31293100I-70000J0D01*
G01*
X56763780Y31293100D01*
G75*
G02*
X56693780Y31363100I0J70000D01*
G01*
G37*
G36*
G01*
X57343780Y31363100D02*
X57343780Y32963100D01*
G75*
G02*
X57413780Y33033100I70000J0D01*
G01*
X57713780Y33033100D01*
G75*
G02*
X57783780Y32963100I0J-70000D01*
G01*
X57783780Y31363100D01*
G75*
G02*
X57713780Y31293100I-70000J0D01*
G01*
X57413780Y31293100D01*
G75*
G02*
X57343780Y31363100I0J70000D01*
G01*
G37*
G36*
G01*
X57993780Y31363100D02*
X57993780Y32963100D01*
G75*
G02*
X58063780Y33033100I70000J0D01*
G01*
X58363780Y33033100D01*
G75*
G02*
X58433780Y32963100I0J-70000D01*
G01*
X58433780Y31363100D01*
G75*
G02*
X58363780Y31293100I-70000J0D01*
G01*
X58063780Y31293100D01*
G75*
G02*
X57993780Y31363100I0J70000D01*
G01*
G37*
G36*
G01*
X58643780Y31363100D02*
X58643780Y32963100D01*
G75*
G02*
X58713780Y33033100I70000J0D01*
G01*
X59013780Y33033100D01*
G75*
G02*
X59083780Y32963100I0J-70000D01*
G01*
X59083780Y31363100D01*
G75*
G02*
X59013780Y31293100I-70000J0D01*
G01*
X58713780Y31293100D01*
G75*
G02*
X58643780Y31363100I0J70000D01*
G01*
G37*
G36*
G01*
X54743780Y36963100D02*
X54743780Y38563100D01*
G75*
G02*
X54813780Y38633100I70000J0D01*
G01*
X55113780Y38633100D01*
G75*
G02*
X55183780Y38563100I0J-70000D01*
G01*
X55183780Y36963100D01*
G75*
G02*
X55113780Y36893100I-70000J0D01*
G01*
X54813780Y36893100D01*
G75*
G02*
X54743780Y36963100I0J70000D01*
G01*
G37*
D22*
X54963780Y32163100D03*
X55613780Y32163100D03*
G36*
G01*
X56043780Y31363100D02*
X56043780Y32963100D01*
G75*
G02*
X56113780Y33033100I70000J0D01*
G01*
X56413780Y33033100D01*
G75*
G02*
X56483780Y32963100I0J-70000D01*
G01*
X56483780Y31363100D01*
G75*
G02*
X56413780Y31293100I-70000J0D01*
G01*
X56113780Y31293100D01*
G75*
G02*
X56043780Y31363100I0J70000D01*
G01*
G37*
G36*
G01*
X59293780Y36963100D02*
X59293780Y38563100D01*
G75*
G02*
X59363780Y38633100I70000J0D01*
G01*
X59663780Y38633100D01*
G75*
G02*
X59733780Y38563100I0J-70000D01*
G01*
X59733780Y36963100D01*
G75*
G02*
X59663780Y36893100I-70000J0D01*
G01*
X59363780Y36893100D01*
G75*
G02*
X59293780Y36963100I0J70000D01*
G01*
G37*
G36*
G01*
X58643780Y36963100D02*
X58643780Y38563100D01*
G75*
G02*
X58713780Y38633100I70000J0D01*
G01*
X59013780Y38633100D01*
G75*
G02*
X59083780Y38563100I0J-70000D01*
G01*
X59083780Y36963100D01*
G75*
G02*
X59013780Y36893100I-70000J0D01*
G01*
X58713780Y36893100D01*
G75*
G02*
X58643780Y36963100I0J70000D01*
G01*
G37*
G36*
G01*
X57993780Y36963100D02*
X57993780Y38563100D01*
G75*
G02*
X58063780Y38633100I70000J0D01*
G01*
X58363780Y38633100D01*
G75*
G02*
X58433780Y38563100I0J-70000D01*
G01*
X58433780Y36963100D01*
G75*
G02*
X58363780Y36893100I-70000J0D01*
G01*
X58063780Y36893100D01*
G75*
G02*
X57993780Y36963100I0J70000D01*
G01*
G37*
G36*
G01*
X57343780Y36963100D02*
X57343780Y38563100D01*
G75*
G02*
X57413780Y38633100I70000J0D01*
G01*
X57713780Y38633100D01*
G75*
G02*
X57783780Y38563100I0J-70000D01*
G01*
X57783780Y36963100D01*
G75*
G02*
X57713780Y36893100I-70000J0D01*
G01*
X57413780Y36893100D01*
G75*
G02*
X57343780Y36963100I0J70000D01*
G01*
G37*
G36*
G01*
X56693780Y36963100D02*
X56693780Y38563100D01*
G75*
G02*
X56763780Y38633100I70000J0D01*
G01*
X57063780Y38633100D01*
G75*
G02*
X57133780Y38563100I0J-70000D01*
G01*
X57133780Y36963100D01*
G75*
G02*
X57063780Y36893100I-70000J0D01*
G01*
X56763780Y36893100D01*
G75*
G02*
X56693780Y36963100I0J70000D01*
G01*
G37*
G36*
G01*
X56043780Y36963100D02*
X56043780Y38563100D01*
G75*
G02*
X56113780Y38633100I70000J0D01*
G01*
X56413780Y38633100D01*
G75*
G02*
X56483780Y38563100I0J-70000D01*
G01*
X56483780Y36963100D01*
G75*
G02*
X56413780Y36893100I-70000J0D01*
G01*
X56113780Y36893100D01*
G75*
G02*
X56043780Y36963100I0J70000D01*
G01*
G37*
G36*
G01*
X59293780Y31363100D02*
X59293780Y32963100D01*
G75*
G02*
X59363780Y33033100I70000J0D01*
G01*
X59663780Y33033100D01*
G75*
G02*
X59733780Y32963100I0J-70000D01*
G01*
X59733780Y31363100D01*
G75*
G02*
X59663780Y31293100I-70000J0D01*
G01*
X59363780Y31293100D01*
G75*
G02*
X59293780Y31363100I0J70000D01*
G01*
G37*
G36*
G01*
X55393780Y36963100D02*
X55393780Y38563100D01*
G75*
G02*
X55463780Y38633100I70000J0D01*
G01*
X55763780Y38633100D01*
G75*
G02*
X55833780Y38563100I0J-70000D01*
G01*
X55833780Y36963100D01*
G75*
G02*
X55763780Y36893100I-70000J0D01*
G01*
X55463780Y36893100D01*
G75*
G02*
X55393780Y36963100I0J70000D01*
G01*
G37*
X54313780Y32163100D03*
G36*
G01*
X59943780Y31363100D02*
X59943780Y32963100D01*
G75*
G02*
X60013780Y33033100I70000J0D01*
G01*
X60313780Y33033100D01*
G75*
G02*
X60383780Y32963100I0J-70000D01*
G01*
X60383780Y31363100D01*
G75*
G02*
X60313780Y31293100I-70000J0D01*
G01*
X60013780Y31293100D01*
G75*
G02*
X59943780Y31363100I0J70000D01*
G01*
G37*
G36*
G01*
X59943780Y36963100D02*
X59943780Y38563100D01*
G75*
G02*
X60013780Y38633100I70000J0D01*
G01*
X60313780Y38633100D01*
G75*
G02*
X60383780Y38563100I0J-70000D01*
G01*
X60383780Y36963100D01*
G75*
G02*
X60313780Y36893100I-70000J0D01*
G01*
X60013780Y36893100D01*
G75*
G02*
X59943780Y36963100I0J70000D01*
G01*
G37*
G36*
G01*
X54093780Y36963100D02*
X54093780Y38563100D01*
G75*
G02*
X54163780Y38633100I70000J0D01*
G01*
X54463780Y38633100D01*
G75*
G02*
X54533780Y38563100I0J-70000D01*
G01*
X54533780Y36963100D01*
G75*
G02*
X54463780Y36893100I-70000J0D01*
G01*
X54163780Y36893100D01*
G75*
G02*
X54093780Y36963100I0J70000D01*
G01*
G37*
X53663780Y32163100D03*
G36*
G01*
X60593780Y31363100D02*
X60593780Y32963100D01*
G75*
G02*
X60663780Y33033100I70000J0D01*
G01*
X60963780Y33033100D01*
G75*
G02*
X61033780Y32963100I0J-70000D01*
G01*
X61033780Y31363100D01*
G75*
G02*
X60963780Y31293100I-70000J0D01*
G01*
X60663780Y31293100D01*
G75*
G02*
X60593780Y31363100I0J70000D01*
G01*
G37*
G36*
G01*
X60593780Y36963100D02*
X60593780Y38563100D01*
G75*
G02*
X60663780Y38633100I70000J0D01*
G01*
X60963780Y38633100D01*
G75*
G02*
X61033780Y38563100I0J-70000D01*
G01*
X61033780Y36963100D01*
G75*
G02*
X60963780Y36893100I-70000J0D01*
G01*
X60663780Y36893100D01*
G75*
G02*
X60593780Y36963100I0J70000D01*
G01*
G37*
G36*
G01*
X53443780Y36963100D02*
X53443780Y38563100D01*
G75*
G02*
X53513780Y38633100I70000J0D01*
G01*
X53813780Y38633100D01*
G75*
G02*
X53883780Y38563100I0J-70000D01*
G01*
X53883780Y36963100D01*
G75*
G02*
X53813780Y36893100I-70000J0D01*
G01*
X53513780Y36893100D01*
G75*
G02*
X53443780Y36963100I0J70000D01*
G01*
G37*
X53013780Y32163100D03*
G36*
G01*
X61243780Y31363100D02*
X61243780Y32963100D01*
G75*
G02*
X61313780Y33033100I70000J0D01*
G01*
X61613780Y33033100D01*
G75*
G02*
X61683780Y32963100I0J-70000D01*
G01*
X61683780Y31363100D01*
G75*
G02*
X61613780Y31293100I-70000J0D01*
G01*
X61313780Y31293100D01*
G75*
G02*
X61243780Y31363100I0J70000D01*
G01*
G37*
G36*
G01*
X61243780Y36963100D02*
X61243780Y38563100D01*
G75*
G02*
X61313780Y38633100I70000J0D01*
G01*
X61613780Y38633100D01*
G75*
G02*
X61683780Y38563100I0J-70000D01*
G01*
X61683780Y36963100D01*
G75*
G02*
X61613780Y36893100I-70000J0D01*
G01*
X61313780Y36893100D01*
G75*
G02*
X61243780Y36963100I0J70000D01*
G01*
G37*
G36*
G01*
X52793780Y36963100D02*
X52793780Y38563100D01*
G75*
G02*
X52863780Y38633100I70000J0D01*
G01*
X53163780Y38633100D01*
G75*
G02*
X53233780Y38563100I0J-70000D01*
G01*
X53233780Y36963100D01*
G75*
G02*
X53163780Y36893100I-70000J0D01*
G01*
X52863780Y36893100D01*
G75*
G02*
X52793780Y36963100I0J70000D01*
G01*
G37*
D23*
X56913780Y34963100D03*
D24*
X19719100Y9992800D03*
X19719100Y14492800D03*
X18469100Y13742800D03*
X19719100Y12992800D03*
X19719100Y11492800D03*
X20969100Y10742800D03*
X18469100Y10742800D03*
X18469100Y12242800D03*
X20969100Y12242800D03*
X20969100Y13742800D03*
D25*
X23339100Y10337800D03*
X23339100Y11607800D03*
X23339100Y12877800D03*
D26*
X17699100Y11607800D03*
X17699100Y12877800D03*
X17699100Y14147800D03*
D25*
X23339100Y14147800D03*
D27*
X19794100Y12242800D03*
D26*
X17699100Y10337800D03*
D24*
X21555900Y8650800D03*
X21555900Y4150800D03*
X22805900Y4900800D03*
X21555900Y5650800D03*
X21555900Y7150800D03*
X20305900Y7900800D03*
X22805900Y7900800D03*
X22805900Y6400800D03*
X20305900Y6400800D03*
X20305900Y4900800D03*
D25*
X17935900Y8305800D03*
X17935900Y7035800D03*
X17935900Y5765800D03*
D26*
X23575900Y7035800D03*
X23575900Y5765800D03*
X23575900Y4495800D03*
D25*
X17935900Y4495800D03*
D27*
X21480900Y6400800D03*
D26*
X23575900Y8305800D03*
D24*
X20049300Y24267600D03*
X20049300Y28767600D03*
X18799300Y28017600D03*
X20049300Y27267600D03*
X20049300Y25767600D03*
X21299300Y25017600D03*
X18799300Y25017600D03*
X18799300Y26517600D03*
X21299300Y26517600D03*
X21299300Y28017600D03*
D25*
X23669300Y24612600D03*
X23669300Y25882600D03*
X23669300Y27152600D03*
D26*
X18029300Y25882600D03*
X18029300Y27152600D03*
X18029300Y28422600D03*
D25*
X23669300Y28422600D03*
D27*
X20124300Y26517600D03*
D26*
X18029300Y24612600D03*
D24*
X21860700Y23078000D03*
X21860700Y18578000D03*
X23110700Y19328000D03*
X21860700Y20078000D03*
X21860700Y21578000D03*
X20610700Y22328000D03*
X23110700Y22328000D03*
X23110700Y20828000D03*
X20610700Y20828000D03*
X20610700Y19328000D03*
D25*
X18240700Y22733000D03*
X18240700Y21463000D03*
X18240700Y20193000D03*
D26*
X23880700Y21463000D03*
X23880700Y20193000D03*
X23880700Y18923000D03*
D25*
X18240700Y18923000D03*
D27*
X21785700Y20828000D03*
D26*
X23880700Y22733000D03*
D24*
X20227100Y38593200D03*
X20227100Y43093200D03*
X18977100Y42343200D03*
X20227100Y41593200D03*
X20227100Y40093200D03*
X21477100Y39343200D03*
X18977100Y39343200D03*
X18977100Y40843200D03*
X21477100Y40843200D03*
X21477100Y42343200D03*
D25*
X23847100Y38938200D03*
X23847100Y40208200D03*
X23847100Y41478200D03*
D26*
X18207100Y40208200D03*
X18207100Y41478200D03*
X18207100Y42748200D03*
D25*
X23847100Y42748200D03*
D27*
X20302100Y40843200D03*
D26*
X18207100Y38938200D03*
D24*
X22063900Y37251200D03*
X22063900Y32751200D03*
X23313900Y33501200D03*
X22063900Y34251200D03*
X22063900Y35751200D03*
X20813900Y36501200D03*
X23313900Y36501200D03*
X23313900Y35001200D03*
X20813900Y35001200D03*
X20813900Y33501200D03*
D25*
X18443900Y36906200D03*
X18443900Y35636200D03*
X18443900Y34366200D03*
D26*
X24083900Y35636200D03*
X24083900Y34366200D03*
X24083900Y33096200D03*
D25*
X18443900Y33096200D03*
D27*
X21988900Y35001200D03*
D26*
X24083900Y36906200D03*
D28*
X12837500Y5181600D03*
X15737500Y5181600D03*
X12888300Y19558000D03*
X15788300Y19558000D03*
X13040700Y33782000D03*
X15940700Y33782000D03*
D18*
X5050000Y45750000D03*
X8050000Y45750000D03*
D16*
X10050000Y43050000D03*
X10050000Y46050000D03*
D10*
X98729800Y12545300D03*
X98729800Y15085300D03*
X98729800Y10005300D03*
X98729800Y7465300D03*
X98823780Y49959260D03*
X98823780Y52499260D03*
X98823780Y47419260D03*
X98823780Y44879260D03*
X98795840Y31742380D03*
X98795840Y34282380D03*
X98795840Y29202380D03*
X98795840Y26662380D03*
D29*
X73439020Y54991000D03*
X67937380Y54991000D03*
X73426320Y31521400D03*
X67924680Y31521400D03*
X73426320Y8204200D03*
X67924680Y8204200D03*
X60934600Y47434500D03*
X55432960Y47434500D03*
D15*
X69976500Y49428700D03*
X69976500Y37718700D03*
D18*
X81537680Y2997200D03*
X84537680Y2997200D03*
X81215100Y40614600D03*
X84215100Y40614600D03*
D30*
X13695700Y54533800D03*
X8695700Y54533800D03*
X3695700Y54533800D03*
X28257500Y18503900D03*
X28257500Y22003900D03*
X28257500Y25503900D03*
D20*
X50534000Y8636000D03*
X49034000Y8636000D03*
X50534000Y5842000D03*
X49034000Y5842000D03*
D31*
X55500000Y6610000D03*
D32*
X58040000Y6610000D03*
X60580000Y6610000D03*
D14*
X19180000Y51120000D03*
X19180000Y52620000D03*
D33*
X44211820Y32762540D03*
X44211820Y33562540D03*
X44211820Y34362540D03*
X44211820Y35162540D03*
X44211820Y35962540D03*
X44211820Y36762540D03*
X44211820Y37562540D03*
X44211820Y38362540D03*
D34*
X42761820Y39812540D03*
X41961820Y39812540D03*
X41161820Y39812540D03*
X40361820Y39812540D03*
X39561820Y39812540D03*
X38761820Y39812540D03*
X37961820Y39812540D03*
X37161820Y39812540D03*
D33*
X35711820Y38362540D03*
X35711820Y37562540D03*
X35711820Y36762540D03*
X35711820Y35962540D03*
X35711820Y35162540D03*
X35711820Y34362540D03*
X35711820Y33562540D03*
X35711820Y32762540D03*
D34*
X37161820Y31312540D03*
X37961820Y31312540D03*
X38761820Y31312540D03*
X39561820Y31312540D03*
X40361820Y31312540D03*
X41161820Y31312540D03*
X41961820Y31312540D03*
X42761820Y31312540D03*
D35*
G36*
X43267924Y43165579D02*
G01*
X42702238Y42599893D01*
X42065842Y43236289D01*
X42631528Y43801975D01*
X43267924Y43165579D01*
G37*
G36*
X42277975Y44155528D02*
G01*
X41712289Y43589842D01*
X41075893Y44226238D01*
X41641579Y44791924D01*
X42277975Y44155528D01*
G37*
G36*
X41500158Y43377711D02*
G01*
X40934472Y42812025D01*
X40298076Y43448421D01*
X40863762Y44014107D01*
X41500158Y43377711D01*
G37*
G36*
X42490107Y42387762D02*
G01*
X41924421Y41822076D01*
X41288025Y42458472D01*
X41853711Y43024158D01*
X42490107Y42387762D01*
G37*
D17*
X11540000Y1630000D03*
X13040000Y1630000D03*
X11820000Y16320000D03*
X13320000Y16320000D03*
X12270040Y30573980D03*
X13770040Y30573980D03*
D21*
X34230000Y28850000D03*
X34230000Y30350000D03*
X32800000Y41770000D03*
X32800000Y40270000D03*
X31940000Y9770000D03*
X31940000Y8270000D03*
X30380000Y9770000D03*
X30380000Y8270000D03*
D20*
X40690000Y25600000D03*
X39190000Y25600000D03*
D21*
X35850000Y27770000D03*
X35850000Y26270000D03*
X29610000Y38590000D03*
X29610000Y40090000D03*
D20*
X29540000Y41330000D03*
X31040000Y41330000D03*
D21*
X33520000Y8290000D03*
X33520000Y9790000D03*
X37860000Y25200000D03*
X37860000Y23700000D03*
X31180000Y38580000D03*
X31180000Y40080000D03*
X14500000Y3050000D03*
X14500000Y1550000D03*
X35080000Y9790000D03*
X35080000Y8290000D03*
X14840000Y17490000D03*
X14840000Y15990000D03*
X36230000Y23690000D03*
X36230000Y25190000D03*
X15318740Y31768480D03*
X15318740Y30268480D03*
X30950000Y35930000D03*
X30950000Y37430000D03*
D35*
G36*
X43606822Y43873848D02*
G01*
X44137152Y44404178D01*
X44702838Y43838492D01*
X44172508Y43308162D01*
X43606822Y43873848D01*
G37*
G36*
X42546162Y44934508D02*
G01*
X43076492Y45464838D01*
X43642178Y44899152D01*
X43111848Y44368822D01*
X42546162Y44934508D01*
G37*
D14*
X39160000Y44130000D03*
X39160000Y42630000D03*
D17*
X32410000Y37270000D03*
X33910000Y37270000D03*
D14*
X33150000Y34410000D03*
X33150000Y35910000D03*
X46367700Y36175380D03*
X46367700Y34675380D03*
X47993300Y36195700D03*
X47993300Y34695700D03*
D17*
X36310000Y43120000D03*
X37810000Y43120000D03*
X45581000Y8509000D03*
X44081000Y8509000D03*
D18*
X44220000Y6731000D03*
X47220000Y6731000D03*
D36*
X62950000Y54250000D03*
X64850000Y54250000D03*
X63900000Y56248980D03*
D28*
X89003800Y56273700D03*
X86103800Y56273700D03*
X89092700Y37287200D03*
X86192700Y37287200D03*
X89308600Y18097500D03*
X86408600Y18097500D03*
D37*
X63898780Y31849400D03*
X63898780Y34749400D03*
D28*
X88953000Y42951400D03*
X86053000Y42951400D03*
X89029200Y23799800D03*
X86129200Y23799800D03*
X89214620Y4597400D03*
X86314620Y4597400D03*
D37*
X50601880Y31900200D03*
X50601880Y34800200D03*
D20*
X36460000Y41700000D03*
X37960000Y41700000D03*
X32560000Y38690000D03*
X34060000Y38690000D03*
D21*
X28810000Y8260000D03*
X28810000Y9760000D03*
D38*
X52578000Y17272000D03*
X55118000Y17272000D03*
X52578000Y14732000D03*
X55118000Y14732000D03*
X52578000Y12192000D03*
D39*
X55118000Y12192000D03*
X56720000Y21470000D03*
D38*
X56720000Y24010000D03*
X59260000Y21470000D03*
X59260000Y24010000D03*
D39*
X49200000Y54950000D03*
D38*
X51740000Y54950000D03*
X54280000Y54950000D03*
G36*
G01*
X65286250Y9427500D02*
X64773750Y9427500D01*
G75*
G02*
X64555000Y9646250I0J218750D01*
G01*
X64555000Y10083750D01*
G75*
G02*
X64773750Y10302500I218750J0D01*
G01*
X65286250Y10302500D01*
G75*
G02*
X65505000Y10083750I0J-218750D01*
G01*
X65505000Y9646250D01*
G75*
G02*
X65286250Y9427500I-218750J0D01*
G01*
G37*
G36*
G01*
X65286250Y11002500D02*
X64773750Y11002500D01*
G75*
G02*
X64555000Y11221250I0J218750D01*
G01*
X64555000Y11658750D01*
G75*
G02*
X64773750Y11877500I218750J0D01*
G01*
X65286250Y11877500D01*
G75*
G02*
X65505000Y11658750I0J-218750D01*
G01*
X65505000Y11221250D01*
G75*
G02*
X65286250Y11002500I-218750J0D01*
G01*
G37*
G36*
G01*
X61832500Y56673750D02*
X61832500Y57186250D01*
G75*
G02*
X62051250Y57405000I218750J0D01*
G01*
X62488750Y57405000D01*
G75*
G02*
X62707500Y57186250I0J-218750D01*
G01*
X62707500Y56673750D01*
G75*
G02*
X62488750Y56455000I-218750J0D01*
G01*
X62051250Y56455000D01*
G75*
G02*
X61832500Y56673750I0J218750D01*
G01*
G37*
G36*
G01*
X60257500Y56673750D02*
X60257500Y57186250D01*
G75*
G02*
X60476250Y57405000I218750J0D01*
G01*
X60913750Y57405000D01*
G75*
G02*
X61132500Y57186250I0J-218750D01*
G01*
X61132500Y56673750D01*
G75*
G02*
X60913750Y56455000I-218750J0D01*
G01*
X60476250Y56455000D01*
G75*
G02*
X60257500Y56673750I0J218750D01*
G01*
G37*
G36*
G01*
X67493500Y22100250D02*
X67493500Y21587750D01*
G75*
G02*
X67274750Y21369000I-218750J0D01*
G01*
X66837250Y21369000D01*
G75*
G02*
X66618500Y21587750I0J218750D01*
G01*
X66618500Y22100250D01*
G75*
G02*
X66837250Y22319000I218750J0D01*
G01*
X67274750Y22319000D01*
G75*
G02*
X67493500Y22100250I0J-218750D01*
G01*
G37*
G36*
G01*
X69068500Y22100250D02*
X69068500Y21587750D01*
G75*
G02*
X68849750Y21369000I-218750J0D01*
G01*
X68412250Y21369000D01*
G75*
G02*
X68193500Y21587750I0J218750D01*
G01*
X68193500Y22100250D01*
G75*
G02*
X68412250Y22319000I218750J0D01*
G01*
X68849750Y22319000D01*
G75*
G02*
X69068500Y22100250I0J-218750D01*
G01*
G37*
G36*
G01*
X60153000Y55882250D02*
X60153000Y55369750D01*
G75*
G02*
X59934250Y55151000I-218750J0D01*
G01*
X59496750Y55151000D01*
G75*
G02*
X59278000Y55369750I0J218750D01*
G01*
X59278000Y55882250D01*
G75*
G02*
X59496750Y56101000I218750J0D01*
G01*
X59934250Y56101000D01*
G75*
G02*
X60153000Y55882250I0J-218750D01*
G01*
G37*
G36*
G01*
X58578000Y55882250D02*
X58578000Y55369750D01*
G75*
G02*
X58359250Y55151000I-218750J0D01*
G01*
X57921750Y55151000D01*
G75*
G02*
X57703000Y55369750I0J218750D01*
G01*
X57703000Y55882250D01*
G75*
G02*
X57921750Y56101000I218750J0D01*
G01*
X58359250Y56101000D01*
G75*
G02*
X58578000Y55882250I0J-218750D01*
G01*
G37*
G36*
G01*
X45396250Y55207500D02*
X44883750Y55207500D01*
G75*
G02*
X44665000Y55426250I0J218750D01*
G01*
X44665000Y55863750D01*
G75*
G02*
X44883750Y56082500I218750J0D01*
G01*
X45396250Y56082500D01*
G75*
G02*
X45615000Y55863750I0J-218750D01*
G01*
X45615000Y55426250D01*
G75*
G02*
X45396250Y55207500I-218750J0D01*
G01*
G37*
G36*
G01*
X45396250Y53632500D02*
X44883750Y53632500D01*
G75*
G02*
X44665000Y53851250I0J218750D01*
G01*
X44665000Y54288750D01*
G75*
G02*
X44883750Y54507500I218750J0D01*
G01*
X45396250Y54507500D01*
G75*
G02*
X45615000Y54288750I0J-218750D01*
G01*
X45615000Y53851250D01*
G75*
G02*
X45396250Y53632500I-218750J0D01*
G01*
G37*
G36*
G01*
X43690250Y53639000D02*
X43177750Y53639000D01*
G75*
G02*
X42959000Y53857750I0J218750D01*
G01*
X42959000Y54295250D01*
G75*
G02*
X43177750Y54514000I218750J0D01*
G01*
X43690250Y54514000D01*
G75*
G02*
X43909000Y54295250I0J-218750D01*
G01*
X43909000Y53857750D01*
G75*
G02*
X43690250Y53639000I-218750J0D01*
G01*
G37*
G36*
G01*
X43690250Y55214000D02*
X43177750Y55214000D01*
G75*
G02*
X42959000Y55432750I0J218750D01*
G01*
X42959000Y55870250D01*
G75*
G02*
X43177750Y56089000I218750J0D01*
G01*
X43690250Y56089000D01*
G75*
G02*
X43909000Y55870250I0J-218750D01*
G01*
X43909000Y55432750D01*
G75*
G02*
X43690250Y55214000I-218750J0D01*
G01*
G37*
G36*
G01*
X45506250Y47812500D02*
X44993750Y47812500D01*
G75*
G02*
X44775000Y48031250I0J218750D01*
G01*
X44775000Y48468750D01*
G75*
G02*
X44993750Y48687500I218750J0D01*
G01*
X45506250Y48687500D01*
G75*
G02*
X45725000Y48468750I0J-218750D01*
G01*
X45725000Y48031250D01*
G75*
G02*
X45506250Y47812500I-218750J0D01*
G01*
G37*
G36*
G01*
X45506250Y49387500D02*
X44993750Y49387500D01*
G75*
G02*
X44775000Y49606250I0J218750D01*
G01*
X44775000Y50043750D01*
G75*
G02*
X44993750Y50262500I218750J0D01*
G01*
X45506250Y50262500D01*
G75*
G02*
X45725000Y50043750I0J-218750D01*
G01*
X45725000Y49606250D01*
G75*
G02*
X45506250Y49387500I-218750J0D01*
G01*
G37*
G36*
G01*
X53922500Y20366250D02*
X53922500Y19853750D01*
G75*
G02*
X53703750Y19635000I-218750J0D01*
G01*
X53266250Y19635000D01*
G75*
G02*
X53047500Y19853750I0J218750D01*
G01*
X53047500Y20366250D01*
G75*
G02*
X53266250Y20585000I218750J0D01*
G01*
X53703750Y20585000D01*
G75*
G02*
X53922500Y20366250I0J-218750D01*
G01*
G37*
G36*
G01*
X52347500Y20366250D02*
X52347500Y19853750D01*
G75*
G02*
X52128750Y19635000I-218750J0D01*
G01*
X51691250Y19635000D01*
G75*
G02*
X51472500Y19853750I0J218750D01*
G01*
X51472500Y20366250D01*
G75*
G02*
X51691250Y20585000I218750J0D01*
G01*
X52128750Y20585000D01*
G75*
G02*
X52347500Y20366250I0J-218750D01*
G01*
G37*
D40*
X39553700Y12489400D03*
X40053700Y12489400D03*
X40553700Y12489400D03*
X41053700Y12489400D03*
X41553700Y12489400D03*
X42053700Y12489400D03*
X42553700Y12489400D03*
X43053700Y12489400D03*
X43553700Y12489400D03*
X44053700Y12489400D03*
X44553700Y12489400D03*
X45053700Y12489400D03*
D41*
X46603700Y14039400D03*
X46603700Y14539400D03*
X46603700Y15039400D03*
X46603700Y15539400D03*
X46603700Y16039400D03*
X46603700Y16539400D03*
X46603700Y17039400D03*
X46603700Y17539400D03*
X46603700Y18039400D03*
X46603700Y18539400D03*
X46603700Y19039400D03*
X46603700Y19539400D03*
D40*
X45053700Y21089400D03*
X44553700Y21089400D03*
X44053700Y21089400D03*
X43553700Y21089400D03*
X43053700Y21089400D03*
X42553700Y21089400D03*
X42053700Y21089400D03*
X41553700Y21089400D03*
X41053700Y21089400D03*
X40553700Y21089400D03*
X40053700Y21089400D03*
X39553700Y21089400D03*
D41*
X38003700Y19539400D03*
X38003700Y19039400D03*
X38003700Y18539400D03*
X38003700Y18039400D03*
X38003700Y17539400D03*
X38003700Y17039400D03*
X38003700Y16539400D03*
X38003700Y16039400D03*
X38003700Y15539400D03*
X38003700Y15039400D03*
X38003700Y14539400D03*
X38003700Y14039400D03*
D42*
X42303700Y16789400D03*
D39*
X63510000Y13630000D03*
D38*
X63510000Y16170000D03*
X63510000Y18710000D03*
X63510000Y21250000D03*
X63510000Y23790000D03*
D43*
X29338000Y6604000D03*
X32638000Y6604000D03*
X72740000Y3250000D03*
X69440000Y3250000D03*
D44*
X14550000Y41250000D03*
X14550000Y45550000D03*
D39*
X50430000Y3860000D03*
D38*
X52970000Y3860000D03*
X55510000Y3860000D03*
X58050000Y3860000D03*
X60590000Y3860000D03*
X63130000Y3860000D03*
D39*
X27570000Y3860000D03*
D38*
X30110000Y3860000D03*
X32650000Y3860000D03*
X35190000Y3860000D03*
X37730000Y3860000D03*
X40270000Y3860000D03*
X42810000Y3860000D03*
X45350000Y3860000D03*
D39*
X18730000Y54940000D03*
D38*
X21270000Y54940000D03*
X23810000Y54940000D03*
X26350000Y54940000D03*
X28890000Y54940000D03*
X31430000Y54940000D03*
X33970000Y54940000D03*
X36510000Y54940000D03*
X39050000Y54940000D03*
D39*
X23510000Y52120000D03*
D38*
X26050000Y52120000D03*
X28590000Y52120000D03*
X31130000Y52120000D03*
X33670000Y52120000D03*
X36210000Y52120000D03*
X38750000Y52120000D03*
X41290000Y52120000D03*
X63130000Y52120000D03*
X60590000Y52120000D03*
X58050000Y52120000D03*
X55510000Y52120000D03*
X52970000Y52120000D03*
X50430000Y52120000D03*
X47890000Y52120000D03*
D39*
X45350000Y52120000D03*
X19600000Y45230000D03*
D38*
X19600000Y47770000D03*
D45*
X94250000Y20000000D03*
X48500000Y48000000D03*
X9500000Y9250000D03*
M02*
