G04 #@! TF.GenerationSoftware,KiCad,Pcbnew,(5.1.9-0-10_14)*
G04 #@! TF.CreationDate,2021-05-28T13:58:57-04:00*
G04 #@! TF.ProjectId,GrBLDC,4772424c-4443-42e6-9b69-6361645f7063,rev?*
G04 #@! TF.SameCoordinates,PX5a7646cPY8128a60*
G04 #@! TF.FileFunction,Soldermask,Bot*
G04 #@! TF.FilePolarity,Negative*
%FSLAX46Y46*%
G04 Gerber Fmt 4.6, Leading zero omitted, Abs format (unit mm)*
G04 Created by KiCad (PCBNEW (5.1.9-0-10_14)) date 2021-05-28 13:58:57*
%MOMM*%
%LPD*%
G01*
G04 APERTURE LIST*
%ADD10C,2.000000*%
%ADD11C,0.500000*%
%ADD12C,2.500000*%
%ADD13R,1.727200X2.032000*%
%ADD14O,1.727200X2.032000*%
%ADD15O,1.700000X1.700000*%
%ADD16R,1.700000X1.700000*%
%ADD17C,1.000000*%
%ADD18R,1.000000X1.000000*%
G04 APERTURE END LIST*
D10*
X99400000Y2325000D03*
X5200000Y8800000D03*
X9900000Y37050000D03*
X94500000Y56475000D03*
D11*
X84630900Y26575200D03*
X85930900Y26575200D03*
X84630900Y27875200D03*
X87230900Y27875200D03*
X85930900Y27875200D03*
X84630900Y29175200D03*
X87230900Y29175200D03*
X85930900Y29175200D03*
X87230900Y34375200D03*
X84630900Y34375200D03*
X85930900Y34375200D03*
X87230900Y33075200D03*
X84630900Y33075200D03*
X85930900Y33075200D03*
X84630900Y31775200D03*
X87230900Y31775200D03*
X85930900Y31775200D03*
X84630900Y30475200D03*
X87230900Y30475200D03*
X87230900Y26575200D03*
X85930900Y30475200D03*
X84628200Y45701400D03*
X85928200Y45701400D03*
X84628200Y47001400D03*
X87228200Y47001400D03*
X85928200Y47001400D03*
X84628200Y48301400D03*
X87228200Y48301400D03*
X85928200Y48301400D03*
X87228200Y53501400D03*
X84628200Y53501400D03*
X85928200Y53501400D03*
X87228200Y52201400D03*
X84628200Y52201400D03*
X85928200Y52201400D03*
X84628200Y50901400D03*
X87228200Y50901400D03*
X85928200Y50901400D03*
X84628200Y49601400D03*
X87228200Y49601400D03*
X87228200Y45701400D03*
X85928200Y49601400D03*
X84625800Y7372800D03*
X85925800Y7372800D03*
X84625800Y8672800D03*
X87225800Y8672800D03*
X85925800Y8672800D03*
X84625800Y9972800D03*
X87225800Y9972800D03*
X85925800Y9972800D03*
X87225800Y15172800D03*
X84625800Y15172800D03*
X85925800Y15172800D03*
X87225800Y13872800D03*
X84625800Y13872800D03*
X85925800Y13872800D03*
X84625800Y12572800D03*
X87225800Y12572800D03*
X85925800Y12572800D03*
X84625800Y11272800D03*
X87225800Y11272800D03*
X87225800Y7372800D03*
X85925800Y11272800D03*
X53313780Y36263100D03*
X53313780Y34963100D03*
X54613780Y36263100D03*
X54613780Y33663100D03*
X54613780Y34963100D03*
X55913780Y36263100D03*
X55913780Y33663100D03*
X55913780Y34963100D03*
X61113780Y33663100D03*
X61113780Y36263100D03*
X61113780Y34963100D03*
X59813780Y33663100D03*
X59813780Y36263100D03*
X59813780Y34963100D03*
X58513780Y36263100D03*
X58513780Y33663100D03*
X58513780Y34963100D03*
X57213780Y36263100D03*
X57213780Y33663100D03*
X53313780Y33663100D03*
X57213780Y34963100D03*
D10*
X98729800Y12545300D03*
X98729800Y15085300D03*
X98729800Y10005300D03*
X98729800Y7465300D03*
X98823780Y49959260D03*
X98823780Y52499260D03*
X98823780Y47419260D03*
X98823780Y44879260D03*
X98795840Y31742380D03*
X98795840Y34282380D03*
X98795840Y29202380D03*
X98795840Y26662380D03*
D12*
X13695700Y54533800D03*
X8695700Y54533800D03*
X3695700Y54533800D03*
X28257500Y18503900D03*
X28257500Y22003900D03*
X28257500Y25503900D03*
D13*
X55500000Y6610000D03*
D14*
X58040000Y6610000D03*
X60580000Y6610000D03*
D15*
X52578000Y17272000D03*
X55118000Y17272000D03*
X52578000Y14732000D03*
X55118000Y14732000D03*
X52578000Y12192000D03*
D16*
X55118000Y12192000D03*
X56720000Y21470000D03*
D15*
X56720000Y24010000D03*
X59260000Y21470000D03*
X59260000Y24010000D03*
D16*
X49200000Y54950000D03*
D15*
X51740000Y54950000D03*
X54280000Y54950000D03*
D17*
X49085500Y8445500D03*
X49085500Y10452100D03*
X49080000Y12450000D03*
D18*
X49085500Y6438900D03*
D16*
X63510000Y13630000D03*
D15*
X63510000Y16170000D03*
X63510000Y18710000D03*
X63510000Y21250000D03*
X63510000Y23790000D03*
D16*
X50430000Y3860000D03*
D15*
X52970000Y3860000D03*
X55510000Y3860000D03*
X58050000Y3860000D03*
X60590000Y3860000D03*
X63130000Y3860000D03*
D16*
X27570000Y3860000D03*
D15*
X30110000Y3860000D03*
X32650000Y3860000D03*
X35190000Y3860000D03*
X37730000Y3860000D03*
X40270000Y3860000D03*
X42810000Y3860000D03*
X45350000Y3860000D03*
D16*
X18730000Y54940000D03*
D15*
X21270000Y54940000D03*
X23810000Y54940000D03*
X26350000Y54940000D03*
X28890000Y54940000D03*
X31430000Y54940000D03*
X33970000Y54940000D03*
X36510000Y54940000D03*
X39050000Y54940000D03*
D16*
X23510000Y52120000D03*
D15*
X26050000Y52120000D03*
X28590000Y52120000D03*
X31130000Y52120000D03*
X33670000Y52120000D03*
X36210000Y52120000D03*
X38750000Y52120000D03*
X41290000Y52120000D03*
X63130000Y52120000D03*
X60590000Y52120000D03*
X58050000Y52120000D03*
X55510000Y52120000D03*
X52970000Y52120000D03*
X50430000Y52120000D03*
X47890000Y52120000D03*
D16*
X45350000Y52120000D03*
X19600000Y45230000D03*
D15*
X19600000Y47770000D03*
M02*
