M48
; DRILL file {KiCad 7.0.7} date Fri Feb  9 15:38:12 2024
; FORMAT={3:3/ absolute / metric / suppress leading zeros}
; #@! TF.CreationDate,2024-02-09T15:38:12-06:00
; #@! TF.GenerationSoftware,Kicad,Pcbnew,7.0.7
; #@! TF.FileFunction,MixedPlating,1,2
FMAT,2
METRIC,TZ
; #@! TA.AperFunction,Plated,PTH,ViaDrill
T1C0.400
; #@! TA.AperFunction,Plated,PTH,ComponentDrill
T2C1.000
; #@! TA.AperFunction,NonPlated,NPTH,ComponentDrill
T3C0.500
; #@! TA.AperFunction,NonPlated,NPTH,ComponentDrill
T4C2.000
; #@! TA.AperFunction,NonPlated,NPTH,ComponentDrill
T5C2.400
; #@! TA.AperFunction,NonPlated,NPTH,ComponentDrill
T6C3.200
%
G90
G05
T1
X74206Y-77122
X74206Y-92122
X74206Y-107122
X74206Y-122122
X74206Y-137122
X74206Y-152122
X74206Y-167122
X74206Y-182122
X74206Y-197122
X74206Y-212122
X75730Y-80932
X75730Y-95932
X75730Y-110932
X75730Y-125932
X75730Y-140932
X75730Y-155932
X75730Y-170932
X75730Y-185932
X75730Y-200932
X75730Y-215932
X83096Y-73058
X83096Y-88058
X83096Y-103058
X83096Y-118058
X83096Y-133058
X83096Y-148058
X83096Y-163058
X83096Y-178058
X83096Y-193058
X83096Y-208058
X88684Y-77630
X88684Y-92630
X88684Y-107630
X88684Y-122630
X88684Y-137630
X88684Y-152630
X88684Y-167630
X88684Y-182630
X88684Y-197630
X88684Y-212630
X88938Y-80932
X88938Y-95932
X88938Y-110932
X88938Y-125932
X88938Y-140932
X88938Y-155932
X88938Y-170932
X88938Y-185932
X88938Y-200932
X88938Y-215932
X111798Y-80932
X111798Y-95932
X111798Y-110932
X111798Y-125932
X111798Y-140932
X111798Y-155932
X111798Y-170932
X111798Y-185932
X111798Y-200932
X111798Y-215932
X119418Y-75344
X119418Y-90344
X119418Y-105344
X119418Y-120344
X119418Y-135344
X119418Y-150344
X119418Y-165344
X119418Y-180344
X119418Y-195344
X119418Y-210344
X124752Y-80932
X124752Y-95932
X124752Y-110932
X124752Y-125932
X124752Y-140932
X124752Y-155932
X124752Y-170932
X124752Y-185932
X124752Y-200932
X124752Y-215932
X131102Y-73058
X131102Y-88058
X131102Y-103058
X131102Y-118058
X131102Y-133058
X131102Y-148058
X131102Y-163058
X131102Y-178058
X131102Y-193058
X131102Y-208058
X132880Y-75598
X132880Y-90598
X132880Y-105598
X132880Y-120598
X132880Y-135598
X132880Y-150598
X132880Y-165598
X132880Y-180598
X132880Y-195598
X132880Y-210598
X137452Y-80932
X137452Y-95932
X137452Y-110932
X137452Y-125932
X137452Y-140932
X137452Y-155932
X137452Y-170932
X137452Y-185932
X137452Y-200932
X137452Y-215932
X146088Y-76360
X146088Y-91360
X146088Y-106360
X146088Y-121360
X146088Y-136360
X146088Y-151360
X146088Y-166360
X146088Y-181360
X146088Y-196360
X146088Y-211360
X149898Y-80932
X149898Y-95932
X149898Y-110932
X149898Y-125932
X149898Y-140932
X149898Y-155932
X149898Y-170932
X149898Y-185932
X149898Y-200932
X149898Y-215932
X156502Y-74836
X156502Y-89836
X156502Y-104836
X156502Y-119836
X156502Y-134836
X156502Y-149836
X156502Y-164836
X156502Y-179836
X156502Y-194836
X156502Y-209836
X161074Y-74836
X161074Y-89836
X161074Y-104836
X161074Y-119836
X161074Y-134836
X161074Y-149836
X161074Y-164836
X161074Y-179836
X161074Y-194836
X161074Y-209836
X162344Y-80932
X162344Y-95932
X162344Y-110932
X162344Y-125932
X162344Y-140932
X162344Y-155932
X162344Y-170932
X162344Y-185932
X162344Y-200932
X162344Y-215932
X166408Y-76360
X166408Y-91360
X166408Y-106360
X166408Y-121360
X166408Y-136360
X166408Y-151360
X166408Y-166360
X166408Y-181360
X166408Y-196360
X166408Y-211360
X167170Y-73058
X167170Y-88058
X167170Y-103058
X167170Y-118058
X167170Y-133058
X167170Y-148058
X167170Y-163058
X167170Y-178058
X167170Y-193058
X167170Y-208058
X173266Y-76360
X173266Y-91360
X173266Y-106360
X173266Y-121360
X173266Y-136360
X173266Y-151360
X173266Y-166360
X173266Y-181360
X173266Y-196360
X173266Y-211360
X174536Y-80932
X174536Y-95932
X174536Y-110932
X174536Y-125932
X174536Y-140932
X174536Y-155932
X174536Y-170932
X174536Y-185932
X174536Y-200932
X174536Y-215932
X178854Y-73058
X178854Y-88058
X178854Y-103058
X178854Y-118058
X178854Y-133058
X178854Y-148058
X178854Y-163058
X178854Y-178058
X178854Y-193058
X178854Y-208058
X179616Y-77884
X179616Y-92884
X179616Y-107884
X179616Y-122884
X179616Y-137884
X179616Y-152884
X179616Y-167884
X179616Y-182884
X179616Y-197884
X179616Y-212884
X185458Y-76360
X185458Y-91360
X185458Y-106360
X185458Y-121360
X185458Y-136360
X185458Y-151360
X185458Y-166360
X185458Y-181360
X185458Y-196360
X185458Y-211360
X188252Y-80932
X188252Y-95932
X188252Y-110932
X188252Y-125932
X188252Y-140932
X188252Y-155932
X188252Y-170932
X188252Y-185932
X188252Y-200932
X188252Y-215932
X190030Y-73058
X190030Y-88058
X190030Y-103058
X190030Y-118058
X190030Y-133058
X190030Y-148058
X190030Y-163058
X190030Y-178058
X190030Y-193058
X190030Y-208058
X199174Y-80932
X199174Y-95932
X199174Y-110932
X199174Y-125932
X199174Y-140932
X199174Y-155932
X199174Y-170932
X199174Y-185932
X199174Y-200932
X199174Y-215932
X200952Y-76360
X200952Y-91360
X200952Y-106360
X200952Y-121360
X200952Y-136360
X200952Y-151360
X200952Y-166360
X200952Y-181360
X200952Y-196360
X200952Y-211360
X212382Y-76614
X212382Y-91614
X212382Y-106614
X212382Y-121614
X212382Y-136614
X212382Y-151614
X212382Y-166614
X212382Y-181614
X212382Y-196614
X212382Y-211614
X214414Y-80932
X214414Y-95932
X214414Y-110932
X214414Y-125932
X214414Y-140932
X214414Y-155932
X214414Y-170932
X214414Y-185932
X214414Y-200932
X214414Y-215932
X215684Y-73058
X215684Y-88058
X215684Y-103058
X215684Y-118058
X215684Y-133058
X215684Y-148058
X215684Y-163058
X215684Y-178058
X215684Y-193058
X215684Y-208058
X218478Y-77630
X218478Y-92630
X218478Y-107630
X218478Y-122630
X218478Y-137630
X218478Y-152630
X218478Y-167630
X218478Y-182630
X218478Y-197630
X218478Y-212630
X223812Y-80932
X223812Y-95932
X223812Y-110932
X223812Y-125932
X223812Y-140932
X223812Y-155932
X223812Y-170932
X223812Y-185932
X223812Y-200932
X223812Y-215932
X226606Y-73058
X226606Y-88058
X226606Y-103058
X226606Y-118058
X226606Y-133058
X226606Y-148058
X226606Y-163058
X226606Y-178058
X226606Y-193058
X226606Y-208058
X228130Y-77630
X228130Y-92630
X228130Y-107630
X228130Y-122630
X228130Y-137630
X228130Y-152630
X228130Y-167630
X228130Y-182630
X228130Y-197630
X228130Y-212630
X233464Y-76106
X233464Y-91106
X233464Y-106106
X233464Y-121106
X233464Y-136106
X233464Y-151106
X233464Y-166106
X233464Y-181106
X233464Y-196106
X233464Y-211106
X233972Y-80932
X233972Y-95932
X233972Y-110932
X233972Y-125932
X233972Y-140932
X233972Y-155932
X233972Y-170932
X233972Y-185932
X233972Y-200932
X233972Y-215932
X239306Y-73058
X239306Y-88058
X239306Y-103058
X239306Y-118058
X239306Y-133058
X239306Y-148058
X239306Y-163058
X239306Y-178058
X239306Y-193058
X239306Y-208058
X245402Y-80932
X245402Y-95932
X245402Y-110932
X245402Y-125932
X245402Y-140932
X245402Y-155932
X245402Y-170932
X245402Y-185932
X245402Y-200932
X245402Y-215932
X248196Y-76106
X248196Y-91106
X248196Y-106106
X248196Y-121106
X248196Y-136106
X248196Y-151106
X248196Y-166106
X248196Y-181106
X248196Y-196106
X248196Y-211106
X256578Y-80932
X256578Y-95932
X256578Y-110932
X256578Y-125932
X256578Y-140932
X256578Y-155932
X256578Y-170932
X256578Y-185932
X256578Y-200932
X256578Y-215932
X257340Y-73058
X257340Y-88058
X257340Y-103058
X257340Y-118058
X257340Y-133058
X257340Y-148058
X257340Y-163058
X257340Y-178058
X257340Y-193058
X257340Y-208058
X265722Y-76106
X265722Y-91106
X265722Y-106106
X265722Y-121106
X265722Y-136106
X265722Y-151106
X265722Y-166106
X265722Y-181106
X265722Y-196106
X265722Y-211106
X268008Y-80932
X268008Y-95932
X268008Y-110932
X268008Y-125932
X268008Y-140932
X268008Y-155932
X268008Y-170932
X268008Y-185932
X268008Y-200932
X268008Y-215932
X273596Y-73058
X273596Y-88058
X273596Y-103058
X273596Y-118058
X273596Y-133058
X273596Y-148058
X273596Y-163058
X273596Y-178058
X273596Y-193058
X273596Y-208058
X274104Y-78392
X274104Y-93392
X274104Y-108392
X274104Y-123392
X274104Y-138392
X274104Y-153392
X274104Y-168392
X274104Y-183392
X274104Y-198392
X274104Y-213392
X279946Y-80932
X279946Y-95932
X279946Y-110932
X279946Y-125932
X279946Y-140932
X279946Y-155932
X279946Y-170932
X279946Y-185932
X279946Y-200932
X279946Y-215932
X281978Y-76106
X281978Y-91106
X281978Y-106106
X281978Y-121106
X281978Y-136106
X281978Y-151106
X281978Y-166106
X281978Y-181106
X281978Y-196106
X281978Y-211106
X288328Y-73058
X288328Y-88058
X288328Y-103058
X288328Y-118058
X288328Y-133058
X288328Y-148058
X288328Y-163058
X288328Y-178058
X288328Y-193058
X288328Y-208058
X291884Y-80932
X291884Y-95932
X291884Y-110932
X291884Y-125932
X291884Y-140932
X291884Y-155932
X291884Y-170932
X291884Y-185932
X291884Y-200932
X291884Y-215932
X297218Y-76360
X297218Y-91360
X297218Y-106360
X297218Y-121360
X297218Y-136360
X297218Y-151360
X297218Y-166360
X297218Y-181360
X297218Y-196360
X297218Y-211360
X303822Y-80932
X303822Y-95932
X303822Y-110932
X303822Y-125932
X303822Y-140932
X303822Y-155932
X303822Y-170932
X303822Y-185932
X303822Y-200932
X303822Y-215932
X304584Y-73058
X304584Y-88058
X304584Y-103058
X304584Y-118058
X304584Y-133058
X304584Y-148058
X304584Y-163058
X304584Y-178058
X304584Y-193058
X304584Y-208058
X312966Y-76360
X312966Y-91360
X312966Y-106360
X312966Y-121360
X312966Y-136360
X312966Y-151360
X312966Y-166360
X312966Y-181360
X312966Y-196360
X312966Y-211360
X315252Y-80932
X315252Y-95932
X315252Y-110932
X315252Y-125932
X315252Y-140932
X315252Y-155932
X315252Y-170932
X315252Y-185932
X315252Y-200932
X315252Y-215932
X322110Y-73058
X322110Y-88058
X322110Y-103058
X322110Y-118058
X322110Y-133058
X322110Y-148058
X322110Y-163058
X322110Y-178058
X322110Y-193058
X322110Y-208058
X326682Y-80932
X326682Y-95932
X326682Y-110932
X326682Y-125932
X326682Y-140932
X326682Y-155932
X326682Y-170932
X326682Y-185932
X326682Y-200932
X326682Y-215932
X337858Y-73058
X337858Y-88058
X337858Y-103058
X337858Y-118058
X337858Y-133058
X337858Y-148058
X337858Y-163058
X337858Y-178058
X337858Y-193058
X337858Y-208058
X339382Y-77122
X339382Y-92122
X339382Y-107122
X339382Y-122122
X339382Y-137122
X339382Y-152122
X339382Y-167122
X339382Y-182122
X339382Y-197122
X339382Y-212122
T2
X85410Y-72840
X85410Y-87840
X85410Y-102840
X85410Y-117840
X85410Y-132840
X85410Y-147840
X85410Y-162840
X85410Y-177840
X85410Y-192840
X85410Y-207840
X87950Y-72840
X87950Y-87840
X87950Y-102840
X87950Y-117840
X87950Y-132840
X87950Y-147840
X87950Y-162840
X87950Y-177840
X87950Y-192840
X87950Y-207840
X90490Y-72840
X90490Y-87840
X90490Y-102840
X90490Y-117840
X90490Y-132840
X90490Y-147840
X90490Y-162840
X90490Y-177840
X90490Y-192840
X90490Y-207840
X93030Y-72840
X93030Y-87840
X93030Y-102840
X93030Y-117840
X93030Y-132840
X93030Y-147840
X93030Y-162840
X93030Y-177840
X93030Y-192840
X93030Y-207840
X95570Y-72840
X95570Y-87840
X95570Y-102840
X95570Y-117840
X95570Y-132840
X95570Y-147840
X95570Y-162840
X95570Y-177840
X95570Y-192840
X95570Y-207840
T3
X70200Y-75480
X70200Y-76480
X70200Y-77480
X70200Y-78480
X70200Y-90480
X70200Y-91480
X70200Y-92480
X70200Y-93480
X70200Y-105480
X70200Y-106480
X70200Y-107480
X70200Y-108480
X70200Y-120480
X70200Y-121480
X70200Y-122480
X70200Y-123480
X70200Y-135480
X70200Y-136480
X70200Y-137480
X70200Y-138480
X70200Y-150480
X70200Y-151480
X70200Y-152480
X70200Y-153480
X70200Y-165480
X70200Y-166480
X70200Y-167480
X70200Y-168480
X70200Y-180480
X70200Y-181480
X70200Y-182480
X70200Y-183480
X70200Y-195480
X70200Y-196480
X70200Y-197480
X70200Y-198480
X70200Y-210480
X70200Y-211480
X70200Y-212480
X70200Y-213480
X136825Y-82980
X136825Y-85980
X136825Y-97980
X136825Y-100980
X136825Y-112980
X136825Y-115980
X136825Y-127980
X136825Y-130980
X136825Y-142980
X136825Y-145980
X136825Y-157980
X136825Y-160980
X136825Y-172980
X136825Y-175980
X136825Y-187980
X136825Y-190980
X136825Y-202980
X136825Y-205980
X137825Y-82980
X137825Y-85980
X137825Y-97980
X137825Y-100980
X137825Y-112980
X137825Y-115980
X137825Y-127980
X137825Y-130980
X137825Y-142980
X137825Y-145980
X137825Y-157980
X137825Y-160980
X137825Y-172980
X137825Y-175980
X137825Y-187980
X137825Y-190980
X137825Y-202980
X137825Y-205980
X138825Y-82980
X138825Y-85980
X138825Y-97980
X138825Y-100980
X138825Y-112980
X138825Y-115980
X138825Y-127980
X138825Y-130980
X138825Y-142980
X138825Y-145980
X138825Y-157980
X138825Y-160980
X138825Y-172980
X138825Y-175980
X138825Y-187980
X138825Y-190980
X138825Y-202980
X138825Y-205980
X139825Y-82980
X139825Y-85980
X139825Y-97980
X139825Y-100980
X139825Y-112980
X139825Y-115980
X139825Y-127980
X139825Y-130980
X139825Y-142980
X139825Y-145980
X139825Y-157980
X139825Y-160980
X139825Y-172980
X139825Y-175980
X139825Y-187980
X139825Y-190980
X139825Y-202980
X139825Y-205980
X204950Y-82980
X204950Y-85980
X204950Y-97980
X204950Y-100980
X204950Y-112980
X204950Y-115980
X204950Y-127980
X204950Y-130980
X204950Y-142980
X204950Y-145980
X204950Y-157980
X204950Y-160980
X204950Y-172980
X204950Y-175980
X204950Y-187980
X204950Y-190980
X204950Y-202980
X204950Y-205980
X205950Y-82980
X205950Y-85980
X205950Y-97980
X205950Y-100980
X205950Y-112980
X205950Y-115980
X205950Y-127980
X205950Y-130980
X205950Y-142980
X205950Y-145980
X205950Y-157980
X205950Y-160980
X205950Y-172980
X205950Y-175980
X205950Y-187980
X205950Y-190980
X205950Y-202980
X205950Y-205980
X206950Y-82980
X206950Y-85980
X206950Y-97980
X206950Y-100980
X206950Y-112980
X206950Y-115980
X206950Y-127980
X206950Y-130980
X206950Y-142980
X206950Y-145980
X206950Y-157980
X206950Y-160980
X206950Y-172980
X206950Y-175980
X206950Y-187980
X206950Y-190980
X206950Y-202980
X206950Y-205980
X207950Y-82980
X207950Y-85980
X207950Y-97980
X207950Y-100980
X207950Y-112980
X207950Y-115980
X207950Y-127980
X207950Y-130980
X207950Y-142980
X207950Y-145980
X207950Y-157980
X207950Y-160980
X207950Y-172980
X207950Y-175980
X207950Y-187980
X207950Y-190980
X207950Y-202980
X207950Y-205980
X273075Y-82980
X273075Y-85980
X273075Y-97980
X273075Y-100980
X273075Y-112980
X273075Y-115980
X273075Y-127980
X273075Y-130980
X273075Y-142980
X273075Y-145980
X273075Y-157980
X273075Y-160980
X273075Y-172980
X273075Y-175980
X273075Y-187980
X273075Y-190980
X273075Y-202980
X273075Y-205980
X274075Y-82980
X274075Y-85980
X274075Y-97980
X274075Y-100980
X274075Y-112980
X274075Y-115980
X274075Y-127980
X274075Y-130980
X274075Y-142980
X274075Y-145980
X274075Y-157980
X274075Y-160980
X274075Y-172980
X274075Y-175980
X274075Y-187980
X274075Y-190980
X274075Y-202980
X274075Y-205980
X275075Y-82980
X275075Y-85980
X275075Y-97980
X275075Y-100980
X275075Y-112980
X275075Y-115980
X275075Y-127980
X275075Y-130980
X275075Y-142980
X275075Y-145980
X275075Y-157980
X275075Y-160980
X275075Y-172980
X275075Y-175980
X275075Y-187980
X275075Y-190980
X275075Y-202980
X275075Y-205980
X276075Y-82980
X276075Y-85980
X276075Y-97980
X276075Y-100980
X276075Y-112980
X276075Y-115980
X276075Y-127980
X276075Y-130980
X276075Y-142980
X276075Y-145980
X276075Y-157980
X276075Y-160980
X276075Y-172980
X276075Y-175980
X276075Y-187980
X276075Y-190980
X276075Y-202980
X276075Y-205980
X342700Y-75480
X342700Y-76480
X342700Y-77480
X342700Y-78480
X342700Y-90480
X342700Y-91480
X342700Y-92480
X342700Y-93480
X342700Y-105480
X342700Y-106480
X342700Y-107480
X342700Y-108480
X342700Y-120480
X342700Y-121480
X342700Y-122480
X342700Y-123480
X342700Y-135480
X342700Y-136480
X342700Y-137480
X342700Y-138480
X342700Y-150480
X342700Y-151480
X342700Y-152480
X342700Y-153480
X342700Y-165480
X342700Y-166480
X342700Y-167480
X342700Y-168480
X342700Y-180480
X342700Y-181480
X342700Y-182480
X342700Y-183480
X342700Y-195480
X342700Y-196480
X342700Y-197480
X342700Y-198480
X342700Y-210480
X342700Y-211480
X342700Y-212480
X342700Y-213480
T4
X67200Y-76980
X67200Y-211980
X345700Y-76980
X345700Y-211980
T5
X103420Y-74160
X103420Y-89160
X103420Y-104160
X103420Y-119160
X103420Y-134160
X103420Y-149160
X103420Y-164160
X103420Y-179160
X103420Y-194160
X103420Y-209160
T6
X79700Y-76980
X79700Y-91980
X79700Y-106980
X79700Y-121980
X79700Y-136980
X79700Y-151980
X79700Y-166980
X79700Y-181980
X79700Y-196980
X79700Y-211980
X206700Y-76980
X206700Y-91980
X206700Y-106980
X206700Y-121980
X206700Y-136980
X206700Y-151980
X206700Y-166980
X206700Y-181980
X206700Y-196980
X206700Y-211980
X333700Y-76980
X333700Y-91980
X333700Y-106980
X333700Y-121980
X333700Y-136980
X333700Y-151980
X333700Y-166980
X333700Y-181980
X333700Y-196980
X333700Y-211980
T2
G00X99720Y-73810
M15
G01X99720Y-72510
M16
G05
G00X99720Y-88810
M15
G01X99720Y-87510
M16
G05
G00X99720Y-103810
M15
G01X99720Y-102510
M16
G05
G00X99720Y-118810
M15
G01X99720Y-117510
M16
G05
G00X99720Y-133810
M15
G01X99720Y-132510
M16
G05
G00X99720Y-148810
M15
G01X99720Y-147510
M16
G05
G00X99720Y-163810
M15
G01X99720Y-162510
M16
G05
G00X99720Y-178810
M15
G01X99720Y-177510
M16
G05
G00X99720Y-193810
M15
G01X99720Y-192510
M16
G05
G00X99720Y-208810
M15
G01X99720Y-207510
M16
G05
G00X100020Y-80960
M15
G01X100020Y-79960
M16
G05
G00X100020Y-95960
M15
G01X100020Y-94960
M16
G05
G00X100020Y-110960
M15
G01X100020Y-109960
M16
G05
G00X100020Y-125960
M15
G01X100020Y-124960
M16
G05
G00X100020Y-140960
M15
G01X100020Y-139960
M16
G05
G00X100020Y-155960
M15
G01X100020Y-154960
M16
G05
G00X100020Y-170960
M15
G01X100020Y-169960
M16
G05
G00X100020Y-185960
M15
G01X100020Y-184960
M16
G05
G00X100020Y-200960
M15
G01X100020Y-199960
M16
G05
G00X100020Y-215960
M15
G01X100020Y-214960
M16
G05
G00X103920Y-81460
M15
G01X102920Y-81460
M16
G05
G00X103920Y-96460
M15
G01X102920Y-96460
M16
G05
G00X103920Y-111460
M15
G01X102920Y-111460
M16
G05
G00X103920Y-126460
M15
G01X102920Y-126460
M16
G05
G00X103920Y-141460
M15
G01X102920Y-141460
M16
G05
G00X103920Y-156460
M15
G01X102920Y-156460
M16
G05
G00X103920Y-171460
M15
G01X102920Y-171460
M16
G05
G00X103920Y-186460
M15
G01X102920Y-186460
M16
G05
G00X103920Y-201460
M15
G01X102920Y-201460
M16
G05
G00X103920Y-216460
M15
G01X102920Y-216460
M16
G05
G00X106520Y-80960
M15
G01X106520Y-79960
M16
G05
G00X106520Y-95960
M15
G01X106520Y-94960
M16
G05
G00X106520Y-110960
M15
G01X106520Y-109960
M16
G05
G00X106520Y-125960
M15
G01X106520Y-124960
M16
G05
G00X106520Y-140960
M15
G01X106520Y-139960
M16
G05
G00X106520Y-155960
M15
G01X106520Y-154960
M16
G05
G00X106520Y-170960
M15
G01X106520Y-169960
M16
G05
G00X106520Y-185960
M15
G01X106520Y-184960
M16
G05
G00X106520Y-200960
M15
G01X106520Y-199960
M16
G05
G00X106520Y-215960
M15
G01X106520Y-214960
M16
G05
G00X108620Y-80960
M15
G01X108620Y-79960
M16
G05
G00X108620Y-95960
M15
G01X108620Y-94960
M16
G05
G00X108620Y-110960
M15
G01X108620Y-109960
M16
G05
G00X108620Y-125960
M15
G01X108620Y-124960
M16
G05
G00X108620Y-140960
M15
G01X108620Y-139960
M16
G05
G00X108620Y-155960
M15
G01X108620Y-154960
M16
G05
G00X108620Y-170960
M15
G01X108620Y-169960
M16
G05
G00X108620Y-185960
M15
G01X108620Y-184960
M16
G05
G00X108620Y-200960
M15
G01X108620Y-199960
M16
G05
G00X108620Y-215960
M15
G01X108620Y-214960
M16
G05
G00X109520Y-73810
M15
G01X109520Y-72510
M16
G05
G00X109520Y-88810
M15
G01X109520Y-87510
M16
G05
G00X109520Y-103810
M15
G01X109520Y-102510
M16
G05
G00X109520Y-118810
M15
G01X109520Y-117510
M16
G05
G00X109520Y-133810
M15
G01X109520Y-132510
M16
G05
G00X109520Y-148810
M15
G01X109520Y-147510
M16
G05
G00X109520Y-163810
M15
G01X109520Y-162510
M16
G05
G00X109520Y-178810
M15
G01X109520Y-177510
M16
G05
G00X109520Y-193810
M15
G01X109520Y-192510
M16
G05
G00X109520Y-208810
M15
G01X109520Y-207510
M16
G05
T0
M30
