G04 #@! TF.GenerationSoftware,KiCad,Pcbnew,7.0.7*
G04 #@! TF.CreationDate,2024-02-09T15:40:01-06:00*
G04 #@! TF.ProjectId,LEDIO Panel,4c454449-4f20-4506-916e-656c2e6b6963,rev?*
G04 #@! TF.SameCoordinates,PX3e2df80PYcfe1c60*
G04 #@! TF.FileFunction,Profile,NP*
%FSLAX46Y46*%
G04 Gerber Fmt 4.6, Leading zero omitted, Abs format (unit mm)*
G04 Created by KiCad (PCBNEW 7.0.7) date 2024-02-09 15:40:01*
%MOMM*%
%LPD*%
G01*
G04 APERTURE LIST*
G04 #@! TA.AperFunction,Profile*
%ADD10C,0.100000*%
G04 #@! TD*
G04 APERTURE END LIST*
D10*
X71625000Y72000000D02*
X5000000Y72000000D01*
X277500000Y102000000D02*
X210875000Y102000000D01*
X142750000Y12000000D02*
X142750000Y13500000D01*
X210875000Y90000000D02*
X277500000Y90000000D01*
X210875000Y12000000D02*
X210875000Y13500000D01*
X139750000Y87000000D02*
X74625000Y87000000D01*
X4000000Y142500000D02*
X4000000Y147000000D01*
X5000000Y117000000D02*
X5000000Y112500000D01*
X207875000Y88500000D02*
X207875000Y87000000D01*
X207875000Y73500000D02*
X207875000Y73500000D01*
X5000000Y147000000D02*
X5000000Y142500000D01*
X74625000Y87000000D02*
X74625000Y88500000D01*
X210875000Y57000000D02*
X210875000Y58500000D01*
X71625000Y133500000D02*
X71625000Y132000000D01*
X142750000Y120000000D02*
X142750000Y120000000D01*
X207875000Y87000000D02*
X142750000Y87000000D01*
X207875000Y45000000D02*
X207875000Y43500000D01*
X139750000Y135000000D02*
X139750000Y133500000D01*
X4000000Y4500000D02*
X5000000Y4500000D01*
X5000000Y94500000D02*
X5000000Y90000000D01*
X278500000Y0D02*
X282500000Y0D01*
X71625000Y13500000D02*
X71625000Y12000000D01*
X74625000Y133500000D02*
X74625000Y135000000D01*
X74625000Y88500000D02*
X74625000Y90000000D01*
X207875000Y57000000D02*
X142750000Y57000000D01*
X207875000Y12000000D02*
X142750000Y12000000D01*
X277500000Y15000000D02*
X277500000Y19500000D01*
X210875000Y43500000D02*
X210875000Y45000000D01*
X278500000Y34500000D02*
X278500000Y22500000D01*
X5000000Y105000000D02*
X71625000Y105000000D01*
X277500000Y27000000D02*
X210875000Y27000000D01*
X139750000Y27000000D02*
X74625000Y27000000D01*
X71625000Y132000000D02*
X5000000Y132000000D01*
X277500000Y112500000D02*
X277500000Y112500000D01*
X139750000Y45000000D02*
X139750000Y43500000D01*
X74625000Y43500000D02*
X74625000Y45000000D01*
X142750000Y28500000D02*
X142750000Y30000000D01*
X5000000Y0D02*
X277500000Y0D01*
X139750000Y75000000D02*
X139750000Y75000000D01*
X142750000Y88500000D02*
X142750000Y90000000D01*
X71625000Y105000000D02*
X71625000Y103500000D01*
X139750000Y75000000D02*
X139750000Y73500000D01*
X277500000Y64500000D02*
X278500000Y64500000D01*
X4000000Y49500000D02*
X5000000Y49500000D01*
X5000000Y120000000D02*
X71625000Y120000000D01*
X142750000Y135000000D02*
X207875000Y135000000D01*
X142750000Y60000000D02*
X207875000Y60000000D01*
X207875000Y13500000D02*
X207875000Y12000000D01*
X71625000Y135000000D02*
X71625000Y133500000D01*
X5000000Y7500000D02*
X4000000Y7500000D01*
X277500000Y124500000D02*
X278500000Y124500000D01*
X5000000Y42000000D02*
X5000000Y37500000D01*
X74625000Y132000000D02*
X74625000Y133500000D01*
X139750000Y43500000D02*
X139750000Y42000000D01*
X277500000Y30000000D02*
X277500000Y34500000D01*
X207875000Y135000000D02*
X207875000Y133500000D01*
X278500000Y49500000D02*
X278500000Y37500000D01*
X4000000Y127500000D02*
X4000000Y139500000D01*
X142750000Y87000000D02*
X142750000Y88500000D01*
X142750000Y43500000D02*
X142750000Y45000000D01*
X74625000Y118500000D02*
X74625000Y120000000D01*
X5000000Y109500000D02*
X5000000Y105000000D01*
X139750000Y88500000D02*
X139750000Y88500000D01*
X74625000Y57000000D02*
X74625000Y58500000D01*
X210875000Y118500000D02*
X210875000Y120000000D01*
X0Y147000000D02*
X0Y0D01*
X71625000Y27000000D02*
X5000000Y27000000D01*
X139750000Y90000000D02*
X139750000Y88500000D01*
X74625000Y120000000D02*
X139750000Y120000000D01*
X210875000Y135000000D02*
X277500000Y135000000D01*
X139750000Y133500000D02*
X139750000Y133500000D01*
X277500000Y127500000D02*
X277500000Y132000000D01*
X5000000Y94500000D02*
X5000000Y94500000D01*
X207875000Y15000000D02*
X207875000Y15000000D01*
X277500000Y127500000D02*
X277500000Y127500000D01*
X139750000Y15000000D02*
X139750000Y13500000D01*
X207875000Y27000000D02*
X142750000Y27000000D01*
X74625000Y135000000D02*
X139750000Y135000000D01*
X210875000Y30000000D02*
X277500000Y30000000D01*
X71625000Y45000000D02*
X71625000Y43500000D01*
X74625000Y60000000D02*
X139750000Y60000000D01*
X277500000Y117000000D02*
X210875000Y117000000D01*
X278500000Y64500000D02*
X278500000Y52500000D01*
X71625000Y15000000D02*
X71625000Y13500000D01*
X139750000Y118500000D02*
X139750000Y117000000D01*
X71625000Y117000000D02*
X5000000Y117000000D01*
X207875000Y30000000D02*
X207875000Y28500000D01*
X5000000Y79500000D02*
X5000000Y79500000D01*
X142750000Y15000000D02*
X207875000Y15000000D01*
X278500000Y109500000D02*
X278500000Y97500000D01*
X210875000Y102000000D02*
X210875000Y103500000D01*
X210875000Y27000000D02*
X210875000Y28500000D01*
X4000000Y139500000D02*
X5000000Y139500000D01*
X4000000Y22500000D02*
X4000000Y34500000D01*
X277500000Y79500000D02*
X278500000Y79500000D01*
X74625000Y72000000D02*
X74625000Y73500000D01*
X5000000Y49500000D02*
X5000000Y45000000D01*
X207875000Y120000000D02*
X207875000Y118500000D01*
X277500000Y82500000D02*
X277500000Y87000000D01*
X207875000Y45000000D02*
X207875000Y45000000D01*
X142750000Y132000000D02*
X142750000Y133500000D01*
X4000000Y112500000D02*
X4000000Y124500000D01*
X277500000Y105000000D02*
X277500000Y109500000D01*
X277500000Y37500000D02*
X277500000Y37500000D01*
X74625000Y75000000D02*
X139750000Y75000000D01*
X5000000Y75000000D02*
X71625000Y75000000D01*
X74625000Y117000000D02*
X74625000Y118500000D01*
X210875000Y13500000D02*
X210875000Y15000000D01*
X74625000Y102000000D02*
X74625000Y103500000D01*
X277500000Y7500000D02*
X277500000Y7500000D01*
X278500000Y67500000D02*
X277500000Y67500000D01*
X277500000Y22500000D02*
X277500000Y27000000D01*
X5000000Y64500000D02*
X5000000Y60000000D01*
X278500000Y52500000D02*
X277500000Y52500000D01*
X282500000Y147000000D02*
X278500000Y147000000D01*
X4000000Y37500000D02*
X4000000Y49500000D01*
X5000000Y139500000D02*
X5000000Y135000000D01*
X207875000Y105000000D02*
X207875000Y103500000D01*
X139750000Y132000000D02*
X74625000Y132000000D01*
X207875000Y43500000D02*
X207875000Y42000000D01*
X277500000Y82500000D02*
X277500000Y82500000D01*
X277500000Y142500000D02*
X277500000Y147000000D01*
X5000000Y52500000D02*
X4000000Y52500000D01*
X74625000Y28500000D02*
X74625000Y30000000D01*
X74625000Y45000000D02*
X139750000Y45000000D01*
X278500000Y19500000D02*
X278500000Y7500000D01*
X74625000Y12000000D02*
X74625000Y13500000D01*
X207875000Y28500000D02*
X207875000Y27000000D01*
X139750000Y15000000D02*
X139750000Y15000000D01*
X139750000Y120000000D02*
X139750000Y118500000D01*
X207875000Y60000000D02*
X207875000Y58500000D01*
X74625000Y103500000D02*
X74625000Y105000000D01*
X277500000Y109500000D02*
X278500000Y109500000D01*
X210875000Y73500000D02*
X210875000Y75000000D01*
X210875000Y42000000D02*
X210875000Y43500000D01*
X142750000Y58500000D02*
X142750000Y60000000D01*
X139750000Y88500000D02*
X139750000Y87000000D01*
X282500000Y0D02*
X282500000Y147000000D01*
X139750000Y28500000D02*
X139750000Y28500000D01*
X142750000Y72000000D02*
X142750000Y73500000D01*
X74625000Y105000000D02*
X139750000Y105000000D01*
X4000000Y82500000D02*
X4000000Y94500000D01*
X139750000Y60000000D02*
X139750000Y60000000D01*
X4000000Y79500000D02*
X5000000Y79500000D01*
X207875000Y132000000D02*
X142750000Y132000000D01*
X5000000Y37500000D02*
X4000000Y37500000D01*
X207875000Y90000000D02*
X207875000Y88500000D01*
X277500000Y4500000D02*
X278500000Y4500000D01*
X71625000Y42000000D02*
X5000000Y42000000D01*
X5000000Y124500000D02*
X5000000Y124500000D01*
X5000000Y19500000D02*
X5000000Y15000000D01*
X142750000Y120000000D02*
X207875000Y120000000D01*
X139750000Y60000000D02*
X139750000Y58500000D01*
X4000000Y67500000D02*
X4000000Y79500000D01*
X278500000Y124500000D02*
X278500000Y112500000D01*
X71625000Y102000000D02*
X5000000Y102000000D01*
X210875000Y120000000D02*
X277500000Y120000000D01*
X139750000Y103500000D02*
X139750000Y102000000D01*
X142750000Y103500000D02*
X142750000Y105000000D01*
X210875000Y88500000D02*
X210875000Y90000000D01*
X207875000Y103500000D02*
X207875000Y102000000D01*
X71625000Y28500000D02*
X71625000Y27000000D01*
X277500000Y37500000D02*
X277500000Y42000000D01*
X5000000Y139500000D02*
X5000000Y139500000D01*
X278500000Y7500000D02*
X277500000Y7500000D01*
X210875000Y72000000D02*
X210875000Y73500000D01*
X210875000Y60000000D02*
X277500000Y60000000D01*
X278500000Y37500000D02*
X277500000Y37500000D01*
X278500000Y127500000D02*
X277500000Y127500000D01*
X278500000Y97500000D02*
X277500000Y97500000D01*
X71625000Y58500000D02*
X71625000Y57000000D01*
X139750000Y42000000D02*
X74625000Y42000000D01*
X277500000Y22500000D02*
X277500000Y22500000D01*
X142750000Y118500000D02*
X142750000Y120000000D01*
X5000000Y49500000D02*
X5000000Y49500000D01*
X277500000Y67500000D02*
X277500000Y67500000D01*
X277500000Y112500000D02*
X277500000Y117000000D01*
X210875000Y87000000D02*
X210875000Y88500000D01*
X142750000Y30000000D02*
X207875000Y30000000D01*
X4000000Y94500000D02*
X5000000Y94500000D01*
X74625000Y30000000D02*
X139750000Y30000000D01*
X5000000Y124500000D02*
X5000000Y120000000D01*
X71625000Y87000000D02*
X5000000Y87000000D01*
X142750000Y75000000D02*
X207875000Y75000000D01*
X207875000Y72000000D02*
X142750000Y72000000D01*
X74625000Y15000000D02*
X139750000Y15000000D01*
X277500000Y94500000D02*
X278500000Y94500000D01*
X207875000Y118500000D02*
X207875000Y117000000D01*
X4000000Y7500000D02*
X4000000Y19500000D01*
X277500000Y97500000D02*
X277500000Y102000000D01*
X5000000Y102000000D02*
X5000000Y97500000D01*
X74625000Y58500000D02*
X74625000Y60000000D01*
X207875000Y15000000D02*
X207875000Y13500000D01*
X139750000Y103500000D02*
X139750000Y103500000D01*
X139750000Y118500000D02*
X139750000Y118500000D01*
X5000000Y67500000D02*
X4000000Y67500000D01*
X142750000Y90000000D02*
X142750000Y90000000D01*
X4000000Y52500000D02*
X4000000Y64500000D01*
X142750000Y42000000D02*
X142750000Y43500000D01*
X71625000Y60000000D02*
X71625000Y58500000D01*
X210875000Y105000000D02*
X277500000Y105000000D01*
X5000000Y82500000D02*
X4000000Y82500000D01*
X277500000Y42000000D02*
X210875000Y42000000D01*
X142750000Y105000000D02*
X142750000Y105000000D01*
X207875000Y60000000D02*
X207875000Y60000000D01*
X71625000Y103500000D02*
X71625000Y102000000D01*
X5000000Y112500000D02*
X4000000Y112500000D01*
X5000000Y12000000D02*
X5000000Y7500000D01*
X142750000Y133500000D02*
X142750000Y135000000D01*
X4000000Y97500000D02*
X4000000Y109500000D01*
X5000000Y30000000D02*
X71625000Y30000000D01*
X277500000Y19500000D02*
X278500000Y19500000D01*
X139750000Y28500000D02*
X139750000Y27000000D01*
X5000000Y57000000D02*
X5000000Y52500000D01*
X210875000Y15000000D02*
X277500000Y15000000D01*
X74625000Y42000000D02*
X74625000Y43500000D01*
X5000000Y72000000D02*
X5000000Y67500000D01*
X4000000Y124500000D02*
X5000000Y124500000D01*
X5000000Y132000000D02*
X5000000Y127500000D01*
X71625000Y43500000D02*
X71625000Y42000000D01*
X71625000Y73500000D02*
X71625000Y72000000D01*
X142750000Y13500000D02*
X142750000Y15000000D01*
X139750000Y13500000D02*
X139750000Y12000000D01*
X277500000Y132000000D02*
X210875000Y132000000D01*
X5000000Y34500000D02*
X5000000Y30000000D01*
X277500000Y57000000D02*
X210875000Y57000000D01*
X277500000Y60000000D02*
X277500000Y64500000D01*
X0Y0D02*
X4000000Y0D01*
X74625000Y27000000D02*
X74625000Y28500000D01*
X207875000Y58500000D02*
X207875000Y57000000D01*
X71625000Y12000000D02*
X5000000Y12000000D01*
X277500000Y90000000D02*
X277500000Y94500000D01*
X277500000Y12000000D02*
X210875000Y12000000D01*
X5000000Y34500000D02*
X5000000Y34500000D01*
X277500000Y97500000D02*
X277500000Y97500000D01*
X210875000Y58500000D02*
X210875000Y60000000D01*
X277500000Y7500000D02*
X277500000Y12000000D01*
X71625000Y88500000D02*
X71625000Y87000000D01*
X5000000Y27000000D02*
X5000000Y22500000D01*
X5000000Y135000000D02*
X71625000Y135000000D01*
X277500000Y45000000D02*
X277500000Y49500000D01*
X277500000Y67500000D02*
X277500000Y72000000D01*
X207875000Y30000000D02*
X207875000Y30000000D01*
X74625000Y73500000D02*
X74625000Y75000000D01*
X277500000Y120000000D02*
X277500000Y124500000D01*
X139750000Y30000000D02*
X139750000Y28500000D01*
X277500000Y49500000D02*
X278500000Y49500000D01*
X5000000Y90000000D02*
X71625000Y90000000D01*
X74625000Y90000000D02*
X139750000Y90000000D01*
X71625000Y57000000D02*
X5000000Y57000000D01*
X139750000Y117000000D02*
X74625000Y117000000D01*
X207875000Y75000000D02*
X207875000Y73500000D01*
X71625000Y118500000D02*
X71625000Y117000000D01*
X142750000Y73500000D02*
X142750000Y75000000D01*
X277500000Y52500000D02*
X277500000Y52500000D01*
X207875000Y133500000D02*
X207875000Y132000000D01*
X210875000Y132000000D02*
X210875000Y133500000D01*
X278500000Y94500000D02*
X278500000Y82500000D01*
X5000000Y97500000D02*
X4000000Y97500000D01*
X4000000Y64500000D02*
X5000000Y64500000D01*
X277500000Y34500000D02*
X278500000Y34500000D01*
X277500000Y87000000D02*
X210875000Y87000000D01*
X139750000Y57000000D02*
X74625000Y57000000D01*
X277500000Y147000000D02*
X5000000Y147000000D01*
X207875000Y102000000D02*
X142750000Y102000000D01*
X207875000Y117000000D02*
X142750000Y117000000D01*
X5000000Y87000000D02*
X5000000Y82500000D01*
X139750000Y58500000D02*
X139750000Y57000000D01*
X5000000Y127500000D02*
X4000000Y127500000D01*
X5000000Y19500000D02*
X5000000Y19500000D01*
X5000000Y4500000D02*
X5000000Y0D01*
X277500000Y139500000D02*
X278500000Y139500000D01*
X277500000Y72000000D02*
X210875000Y72000000D01*
X210875000Y45000000D02*
X277500000Y45000000D01*
X278500000Y147000000D02*
X278500000Y142500000D01*
X142750000Y27000000D02*
X142750000Y28500000D01*
X5000000Y142500000D02*
X4000000Y142500000D01*
X5000000Y22500000D02*
X4000000Y22500000D01*
X139750000Y133500000D02*
X139750000Y132000000D01*
X74625000Y13500000D02*
X74625000Y15000000D01*
X4000000Y109500000D02*
X5000000Y109500000D01*
X5000000Y109500000D02*
X5000000Y109500000D01*
X278500000Y142500000D02*
X277500000Y142500000D01*
X139750000Y12000000D02*
X74625000Y12000000D01*
X142750000Y105000000D02*
X207875000Y105000000D01*
X5000000Y60000000D02*
X71625000Y60000000D01*
X139750000Y73500000D02*
X139750000Y72000000D01*
X207875000Y42000000D02*
X142750000Y42000000D01*
X4000000Y19500000D02*
X5000000Y19500000D01*
X142750000Y90000000D02*
X207875000Y90000000D01*
X5000000Y79500000D02*
X5000000Y75000000D01*
X139750000Y102000000D02*
X74625000Y102000000D01*
X277500000Y52500000D02*
X277500000Y57000000D01*
X71625000Y75000000D02*
X71625000Y73500000D01*
X277500000Y135000000D02*
X277500000Y139500000D01*
X210875000Y133500000D02*
X210875000Y135000000D01*
X142750000Y117000000D02*
X142750000Y118500000D01*
X278500000Y79500000D02*
X278500000Y67500000D01*
X142750000Y57000000D02*
X142750000Y58500000D01*
X278500000Y4500000D02*
X278500000Y0D01*
X139750000Y105000000D02*
X139750000Y103500000D01*
X277500000Y75000000D02*
X277500000Y79500000D01*
X5000000Y64500000D02*
X5000000Y64500000D01*
X210875000Y103500000D02*
X210875000Y105000000D01*
X5000000Y45000000D02*
X71625000Y45000000D01*
X4000000Y34500000D02*
X5000000Y34500000D01*
X139750000Y72000000D02*
X74625000Y72000000D01*
X142750000Y45000000D02*
X207875000Y45000000D01*
X278500000Y139500000D02*
X278500000Y127500000D01*
X71625000Y30000000D02*
X71625000Y28500000D01*
X277500000Y0D02*
X277500000Y4500000D01*
X139750000Y45000000D02*
X139750000Y45000000D01*
X71625000Y120000000D02*
X71625000Y118500000D01*
X4000000Y147000000D02*
X0Y147000000D01*
X4000000Y0D02*
X4000000Y4500000D01*
X0Y147000000D02*
X0Y147000000D01*
X210875000Y75000000D02*
X277500000Y75000000D01*
X278500000Y82500000D02*
X277500000Y82500000D01*
X5000000Y15000000D02*
X71625000Y15000000D01*
X278500000Y112500000D02*
X277500000Y112500000D01*
X278500000Y22500000D02*
X277500000Y22500000D01*
X210875000Y117000000D02*
X210875000Y118500000D01*
X142750000Y135000000D02*
X142750000Y135000000D01*
X142750000Y102000000D02*
X142750000Y103500000D01*
X71625000Y90000000D02*
X71625000Y88500000D01*
X207875000Y73500000D02*
X207875000Y72000000D01*
X210875000Y28500000D02*
X210875000Y30000000D01*
M02*
